<?xml version="1.0" standalone="no"?>
<!DOCTYPE svg PUBLIC "-//W3C//DTD SVG 1.1//EN" "http://www.w3.org/Graphics/SVG/1.1/DTD/svg11.dtd" >
<svg xmlns="http://www.w3.org/2000/svg">
<metadata>
<json>
<![CDATA[
{
	"fontFamily": "msmx-eshop-ecare",
	"majorVersion": 1,
	"minorVersion": 0,
	"version": "Version 1.0",
	"fontId": "msmx-eshop-ecare",
	"psName": "msmx-eshop-ecare",
	"subFamily": "Regular",
	"fullName": "msmx-eshop-ecare",
	"description": "Font generated by IcoMoon."
}
]]>
</json>
</metadata>
<defs>
<font id="msmx-eshop-ecare" horiz-adv-x="1024">
<font-face units-per-em="1024" ascent="960" descent="-64" />
<missing-glyph horiz-adv-x="1024" />
<glyph unicode="&#x20;" horiz-adv-x="512" d="" />
<glyph unicode="&#xe900;" glyph-name="substract" data-tags="substract" horiz-adv-x="4437" d="M162.111 871.491h4112.771v-846.983h-4112.771z" />
<glyph unicode="&#xe901;" glyph-name="arrow-back" data-tags="arrow-back" horiz-adv-x="1664" d="M1436.333 921.6l185-179.848-789.333-767.352-789.333 767.352 185 179.848 604.333-587.504z" />
<glyph unicode="&#xe902;" glyph-name="arrow-right" data-tags="arrow-right" horiz-adv-x="626" d="M5.8 840l116.658 120 497.742-512-497.742-512-116.658 120 381.084 392z" />
<glyph unicode="&#xe903;" glyph-name="add" data-tags="add" d="M419.446 358.34h-387.566v182.214h387.566v387.566h182.214v-387.566h390.459v-182.214h-390.459v-390.459h-182.214z" />
<glyph unicode="&#xe904;" glyph-name="box" data-tags="box" horiz-adv-x="994" d="M927.699 485.068c-9.746-7.729-19.534-15.332-29.279-23.019-10.9-8.743-21.842-17.528-32.699-26.313-17.781-14.487-35.52-28.974-53.344-43.377-18.423-14.783-36.931-29.523-55.31-44.306-2.607-2.112-4.445-2.534-6.967 0.296-32.015 35.352-63.987 70.662-95.66 106.267-0.214 0.253-0.299 0.718-0.769 1.816 61.038 51.951 121.734 104.282 180.635 158.514 37.315-38.182 75.357-75.688 113.869-112.687-6.882-5.786-13.464-11.573-20.474-17.19zM848.453 184.005c-0.427-4.773-2.351-7.983-6.497-11.319-68.86-54.359-136.438-110.322-201.964-168.482-1.282-1.14-2.736-2.070-4.702-3.548 11.156 134.608 15.131 269.554 11.883 404.585 0.513 0.549 1.069 1.056 1.582 1.563 0.684-1.394 1.069-3.041 2.052-4.139 27.783-31.255 55.738-62.341 83.564-93.47 8.378-10.559 22.098-11.531 32.058-2.492 26.672 21.456 53.387 42.828 80.144 64.073 1.582 1.225 3.249 2.365 5.77 4.139 0.342-2.999 0.598-4.773 0.684-6.547 2.436-61.623 0.812-122.951-4.574-184.363zM598.829-14.507c-0.171-1.774 0.214-3.801-0.556-5.28-0.898-1.689-2.565-3.168-4.146-4.224-0.983-0.591-2.479-0.211-3.761-0.253-135.626-4.477-270.91 2.745-405.339 21.329-7.822 1.14-7.865 1.14-9.874 9.292-20.346 83.333-32.87 167.679-36.888 253.293-0.342 8.067-0.299 8.067 8.762 7.983 22.355-0.422 44.795-0.76 67.193-1.098 99.208-1.309 198.416-1.858 297.624-2.196 12.353-0.465 22.996 5.744 28.467 16.726 21.158 38.562 43 76.744 64.287 115.306 0.769 1.352 1.624 2.576 2.436 3.844 0.427-0.127 0.855-0.253 1.282-0.422 0.043-1.901 0.085-3.886 0.085-5.871 2.094-136.255-1.154-272.384-9.575-408.428zM60.601 303.661c-2.394 0.042-4.745 0.042-8.292 0.042 1.325 2.492 2.18 4.181 3.206 5.786 24.791 39.196 50.523 77.758 76.426 116.235 2.607 3.886 5.386 5.237 9.917 5.449 144.687 7.222 289.546 10.221 434.447 8.996 2.137-0.042 4.189-0.253 7.138-0.38-1.154-2.576-1.795-4.35-2.693-5.998-22.74-41.814-46.12-83.291-69.373-124.851-2.436-4.393-5.215-6.082-10.344-6.040-58.473 0.127-116.947 0.127-175.377 0.211-88.308 0.127-176.702 0.296-265.054 0.549zM985.147 507.833c-12.396 11.531-24.791 23.188-37.144 34.803-35.221 33.451-69.971 67.325-103.867 102.086-7.95 8.236-15.388 12.629-24.364 14.023-12.225 1.901-34.195-31.128-33.939-31.593-8.848-8.363-17.739-16.641-26.672-24.962-43.941-40.251-88.736-79.489-133.745-118.516-4.787-4.139-9.617-5.829-16.157-5.702-71.767 1.478-143.533 1.309-215.343-0.084-7.993-0.169-46.377-1.352-52.361-1.521-51.763-1.436-103.44-3.886-155.16-6.885-1.368-0.084-2.693-0.169-4.061-0.253-0.128 0.38-0.256 0.76-0.385 1.098 34.793 27.792 69.074 56.048 103.055 84.684-8.805 6.758-17.311 13.98-25.475 21.667-46.12-38.9-93.053-76.871-140.712-113.912-3.89-3.041-7.437-6.8-10.216-10.686-22.312-31.297-44.282-62.848-65.868-94.61-13.55-20.020-26.843-40.209-39.837-60.567-6.668-10.137-0.94-22.259 10.472-25.426 3.633-1.014 7.608-1.309 11.413-1.394 22.013-0.591 44.026-1.014 65.996-1.436 8.292-0.211 8.292-0.211 8.677-7.856 2.736-51.909 8.848-103.226 18.294-154.333 7.779-39.533 17.439-78.518 28.98-117.122 3.932-12.544 12.866-22.048 25.988-24.413 44.966-8.278 91.087-14.318 136.994-19.26 13.464-1.309 26.929-2.407 40.393-3.506 85.958-6.631 171.915-7.898 258.001-3.844 6.796 0.338 12.652 2.619 18.465 8.109 15.345 14.445 31.117 28.467 46.89 42.49 64.671 57.146 131.266 112.138 199.314 165.314 7.993 6.209 11.883 12.882 12.866 21.794 7.908 74.083 9.446 148.082 4.189 222.418-0.299 3.548-0.256 6.547 3.035 9.039 31.93 24.877 63.816 49.797 95.831 74.632 11.242 7.603 1.71 18.922-3.548 25.722zM372.471 508.235c-0.088 24.362-0.132 50.053-0.132 78.747 0 167.444 0 259.701 22.745 299.332 18.505 32.254 55.427 33.926 159.436 33.926 106.129 0 144.994-2.959 164.338-36.285 21.773-37.572 23.275-119.278 23.407-264.033l40.853 29.509c-0.353 136.992-3.489 210.763-28.575 254.040-32.815 56.53-99.327 56.53-200.024 56.53-105.775 0-164.073 0-195.254-54.342-27.912-48.638-27.912-133.303-27.912-318.676 0-28.908 0.044-54.557 0.177-78.747h40.941zM609.059 809.412h-103.647c-12.909 0-23.471 13.553-23.471 30.118 0 16.504 10.562 30.118 23.471 30.118h103.647c12.909 0 23.471-13.613 23.471-30.118 0-16.565-10.562-30.118-23.471-30.118z" />
<glyph unicode="&#xe905;" glyph-name="bullet-comic" data-tags="bullet-comic" horiz-adv-x="2240" d="M1120 960c941.5 0 1120-191.935 1120-512s-178.5-512-1120-512c-941.5 0-1120 191.935-1120 512s178.5 512 1120 512z" />
<glyph unicode="&#xe906;" glyph-name="camera" data-tags="camera" horiz-adv-x="1236" d="M73.059 384.83v0c6.502-75.075 22.031-147.672 45.512-219.19 7.523-21.235 20.795-40.744 36.861-56.428 22.944-23.229 50.832-42.846 82.964-50.445 166.788-38.319 336.477-52.386 507.241-39.774 85.328 7.276 169.421 20.857 252.868 40.044 17.302 5.066 30.305 10.995 45.888 20.264 27.296 18.432 53.787 42.361 67.113 73.189 10.747 27.001 19.075 54.272 26.437 82.297 29.285 119.053 34.443 239.077 14.562 360.071-0.752 4.365-2.042 8.785-2.633 13.096-1.881 15.737-10.962 28.025-20.042 40.205-24.449 28.78-58.73 49.637-96.29 54.757-22.246 2.91-44.491 5.767-66.737 8.677-17.678 3.18-30.574 16.977-35.947 33.738-4.997 16.438-10.424 31.205-17.786 46.727-16.496 30.235-42.073 55.027-72.862 70.387-18.269 6.845-33.046 9.701-52.39 11.803-118.589 12.126-237.124 11.48-355.606-1.832-10.156-1.24-20.741-3.665-31.058-7.923-45.781-18.971-86.403-66.452-95.538-115.712-3.063-20.103-20.096-34.762-39.494-37.619-23.965-2.91-47.822-5.821-71.626-9.647-29.607-5.228-56.474-21.073-77.644-42.2-15.69-14.929-27.458-34.654-31.81-55.943-12.681-72.596-16.765-144.977-11.982-218.543v0zM617.698-58.293c-87.585 0.701-173.827 10.132-259.531 27.971-34.497 7.653-68.563 16.546-102.415 26.624-65.232 20.264-126.595 76.045-168.453 128.485-12.251 16.168-23.965 32.391-31.864 51.254-54.432 137.755-69.638 280.522-37.989 425.607 14.777 61.548 79.418 113.233 132.345 141.043 27.404 12.989 54.217 21.342 83.985 26.624 17.087 2.695 16.872 2.856 25.523 19.833 22.514 45.002 57.871 83.968 97.741 114.203 26.544 18.755 54.163 34.439 86.833 39.074 121.544 16.33 242.874 16.222 364.042-2.91 34.282-6.036 62.814-28.51 88.66-50.392 34.335-30.504 65.178-66.883 84.683-108.813 2.955-6.252 5.911-8.354 11.929-9.485 19.129-3.557 38.419-7.276 57.011-12.935 38.957-11.857 74.582-35.948 104.35-63.757 28.532-27.432 56.527-58.152 65.447-98.035 29.714-143.683 14.239-284.78-39.763-420.756-25.523-61.009-87.155-115.011-140.942-149.288-19.989-12.719-40.837-24.36-63.942-31.313-35.84-10.024-71.841-18.863-108.272-26.57-82.48-16.276-165.337-24.953-249.375-25.6v-0.862zM883.509 391.192c3.804 128.697-116.906 243.509-243.831 244.951-129.122 1.442-253.529-113.050-250.261-244.15 3-123.356 118.085-248.101 244.367-249.703 128.372-1.549 246.51 123.57 249.725 248.902zM635.767 71.533c-153.714-0.16-304.642 160.47-316.107 308.712-13.394 167.786 152.214 328.043 317.768 326.868 165.179 0.053 330.305-160.31 316.214-327.883-11.358-149.737-164.376-307.163-317.875-307.697zM619.257 848.361c63.959-0.29 127.704-3.095 191.395-8.511 16.524-1.547 30.108-11.993 35.242-26.161 8.824-18.666-5.348-36.848-27.22-35.784-45.99 2.95-92.034 5.078-138.132 6.19-86.954 1.596-173.694-0.484-260.434-6.141-16.364-1.789-30.161 7.882-30.589 23.066 0.053 16.441 13.744 35.784 33.049 38.202 12.995 1.644 26.204 2.563 39.359 3.433 52.408 3.627 104.815 5.513 157.33 5.706zM531.621 565.878c14.235-1.134 27.84-10.205 32.726-24.405 4.885-15.712-0.893-32.234-13.763-41.844-21.169-16.090-39.344-38.551-47.959-64.413-14.025-46.542-8.72-86.766 15.233-128.503 9.98-14.632 12.292-34.609-0.473-48.378-13.658-16.63-37.821-11.284-50.008 3.618-17.755 25.215-31.517 52.373-37.873 83.041-4.202 22.623-5.726 43.41-3.94 66.411 4.885 39.091 20.434 75.806 44.912 106.15 13.605 15.82 27.788 29.21 44.282 41.844 4.833 3.402 11.189 4.373 16.862 6.479z" />
<glyph unicode="&#xe907;" glyph-name="cell-4g" data-tags="cell-4g" horiz-adv-x="738" d="M296.69 137.086c20.563 0 28.209-9.319 28.209-34.39s-7.647-34.39-28.209-34.39c-17.157 0-26.474 5.547-26.474 34.39 0 28.917 9.317 34.39 26.474 34.39zM296.69 31.255c38.426 0 60.402 26.033 60.402 71.442s-21.976 71.442-60.402 71.442c-37.848 0-58.667-25.367-58.667-71.442s20.82-71.442 58.667-71.442zM618.836 280.879c-17.436-11.391-36.343-20.191-56.44-25.034-2.241-110.504-9.243-179.534-30.811-216.437-26.119-44.679-79.549-48.635-225.621-48.635h-5.252c-139.56 0-189.138 2.319-213.997 46.248-30.671 54.229-30.671 180.421-30.671 409.614 0 230.42 0 357.363 31.231 411.933 25.349 44.406 76.047 46.657 218.689 46.657 145.652 0 199.012-4.093 225.551-49.931 19.887-34.515 27.52-96.179 30.321-192.699 21.078 2.046 39.914 2.115 52.309 2.115h3.781c-3.221 107.025-12.184 173.668-37.534 217.46-44.886 77.83-136.199 77.83-274.429 77.83-145.092 0-224.991 0-267.776-74.829-38.304-66.984-38.304-183.422-38.304-438.536 0-253.749 0-369.505 37.604-436.012 41.735-73.805 119.183-74.624 259.233-74.624h9.243c143.342 0 229.753 0 274.359 76.329 29.271 49.999 36.833 130.558 38.724 268.415-0.070 0.068-0.14 0.068-0.21 0.136zM280.069 526.021c-0.334 0-0.534 0-0.868 0-35.324-44.752-53.421-66.816-82.869-108.248 32.52-0.692 48.88-1.038 81.4-1.453-1.803 43.853-1.336 65.779 2.337 109.7zM281.070 368.042c-41.067 1.314-61.501 2.213-102.501 4.496-21.168 1.245-33.722 16.393-35.391 28.912-1.336 10.237 0.601 16.393 5.542 22.964 47.144 61.145 80.532 95.59 138.76 165.104 7.212 8.784 16.16 12.727 26.911 13.211 20.701 1.038 27.512-11.274 26.043-29.742-4.875-62.943-5.743-94.414-4.207-157.288 8.347-0.069 12.487-0.069 20.901-0.138 14.157-0.069 23.505-10.583 23.772-24.9 0.267-14.249-8.414-24.624-22.303-24.416-8.147 0.138-12.287 0.208-20.433 0.346 1.002-17.776 1.603-26.63 3.072-44.406 1.536-18.053-4.007-29.95-23.639-28.912-19.699 0.968-28.78 13.349-31.318 31.126-2.537 17.5-3.606 26.215-5.209 43.645zM717.284 351.606c-4.068-11.376-17.271-21.949-30.688-23.354-18.984-1.941-19.84 8.9-17.984 33.726-25.549-24.492-56.166-42.292-97.344-44.634-102.625-5.889-142.733 69.795-142.733 154.78 0 102.183 62.303 159.665 152.439 154.111 73.508-4.483 127.532-51.393 132.671-75.951 4.639-21.815-13.774-26.968-29.332-26.432-35.897 1.071-29.332 46.106-98.129 48.582-48.601 1.74-83.999-28.774-84.141-104.993-0.143-59.423 27.191-100.309 84.712-98.101 37.253 1.405 75.292 26.7 81.786 61.631-19.055-0.468-28.547-0.669-47.673-1.004-15.487-0.268-32.4 4.818-31.972 25.295 0.357 16.395 10.491 25.83 28.832 25.763 36.254-0.134 54.381-0.201 90.636-0.402 21.553-0.134 30.616-9.235 29.689-26.299-2.141-41.087-6.28-61.698-20.768-102.718z" />
<glyph unicode="&#xe908;" glyph-name="cell-all" data-tags="cell-all" horiz-adv-x="1357" d="M75.914 789.326c21.999 41.126 65.996 43.192 189.723 43.192 126.275 0 172.509-3.809 195.502-46.162 27.84-51.392 27.84-167.476 27.84-378.079 0-210.152 0-325.977-27.778-376.659-22.682-41.256-68.979-45-195.564-45h-4.785c-120.93 0-163.871 2.195-185.373 42.741-26.659 50.165-26.659 166.959-26.659 378.919 0 213.186 0 330.626 27.094 381.049zM257.558-64h8.079c124.224 0 199.231 0 237.884 70.632 34.179 62.238 34.179 175.675 34.179 401.645 0 226.357 0 339.987-34.117 402.936-39.026 71.987-118.134 71.987-237.946 71.987-125.84 0-195.191 0-232.353-69.276-33.184-61.916-33.184-169.671-33.184-405.648 0-234.686 0-341.731 32.687-403.323 36.167-68.243 103.344-68.953 224.772-68.953zM280.992 139.838c17.642 0 24.257-6.722 24.257-24.665 0-17.889-6.616-24.611-24.257-24.611-14.758 0-22.844 3.903-22.844 24.611s8.086 24.665 22.844 24.665zM280.992 64c32.965 0 51.907 18.648 51.907 51.173s-18.942 51.227-51.907 51.227c-32.569 0-50.493-18.214-50.493-51.227 0-32.959 17.924-51.173 50.493-51.173zM960.194 882.179c-43.804 77.821-132.741 77.821-267.315 77.821-137.798 0-215.166-0.19-257.58-69.666 19.026-4.678 36.346-11.442 52.085-20.735 27.054 33.695 79.202 35.655 205.495 35.655 141.843 0 193.801-4.109 219.654-49.942 31.226-55.568 31.226-180.992 31.226-408.766 0-227.141 0-352.375-31.162-407.185-25.474-44.695-77.495-48.678-219.718-48.678h-5.373c-63.336 0-107.457 0.632-139.188 5.626-1.643-3.54-3.413-7.080-5.31-10.368-8.597-15.172-18.647-27.626-29.835-38.057 42.098-11.569 97.596-11.885 170.667-11.885h9.039c139.567 0 223.826 0 267.251 76.304 38.368 67.39 38.368 189.969 38.368 434.242 0 244.716 0 367.548-38.305 435.633zM649.106 127.969c0 25.907 9.979 30.818 28.466 30.818 22.133 0 30.257-8.349 30.257-30.818 0-22.408-8.124-30.757-30.257-30.757-18.487 0-28.466 4.85-28.466 30.757zM742.499 127.969c0 40.702-23.668 64.031-64.928 64.031-40.62 0-63.072-22.715-63.072-64.031 0-41.255 22.453-63.969 63.072-63.969 41.259 0 64.928 23.267 64.928 63.969zM1326.642 692.95c-34.571 62.25-104.651 62.25-210.864 62.25-39.26 0-72.143-0.063-99.962-2.662 1.125-13.756 2.188-28.146 2.938-43.676 24.006 2.282 55.389 2.599 97.024 2.599 111.902 0 152.912-3.36 173.23-39.936 24.694-44.5 24.694-144.911 24.694-327.033 0-181.805 0-281.899-24.631-325.766-20.067-35.752-61.14-38.922-173.292-38.922h-4.251c-70.142 0-110.589 0.887-135.533 11.284-8.565-13.692-18.004-25.356-28.695-34.928 35.321-19.841 86.709-20.158 161.352-20.158h7.127c110.089 0 176.543 0 210.801 61.045 30.32 53.946 30.32 152.011 30.32 347.445 0 195.751 0 294.070-30.257 348.46zM1113.17 114.215c13.233 0 18.141-6.708 18.141-24.677 0-17.846-4.908-24.554-18.141-24.554-11.068 0-17.131 3.877-17.131 24.554 0 20.738 6.063 24.677 17.131 24.677zM1113.17 38.4c24.734 0 38.929 18.646 38.929 51.138 0 32.554-14.195 51.262-38.929 51.262-24.397 0-37.871-18.215-37.871-51.262 0-32.985 13.474-51.138 37.871-51.138z" />
<glyph unicode="&#xe909;" glyph-name="cell-detail" data-tags="cell-detail" horiz-adv-x="683" d="M523.555 731.89c-38.050 0-68.939 30.792-68.939 68.866 0 38.010 30.888 68.802 68.939 68.802s68.939-30.792 68.939-68.802c0-38.074-30.888-68.866-68.939-68.866zM682.663 815.449c-0.128 9.263-7.546 16.865-17.842 16.418-4.668-0.192-9.337-0.192-14.069 0.064-2.75 0.128-5.628 0.639-8.186 1.597-5.883 2.172-8.953 7.091-11.255 12.649-3.453 8.496-2.11 15.907 4.349 22.423 3.453 3.514 7.035 6.963 10.488 10.477 6.651 6.772 6.907 16.801 0.256 23.701-6.715 7.027-13.621 13.926-20.592 20.634-7.162 6.835-17.267 6.58-24.301-0.447-3.581-3.577-7.098-7.283-10.744-10.796-3.645-3.577-8.058-5.43-13.302-5.494-4.86-0.064-9.081 1.853-13.046 4.025-6.459 3.577-9.657 9.391-9.593 16.865 0 5.047 0 10.094 0 15.076-0.128 9.902-7.546 17.248-17.458 17.312-9.337 0.064-18.674 0.064-27.946 0-9.848-0.064-17.139-7.474-17.203-17.248 0-4.791 0.192-9.582-0.064-14.31-0.128-2.875-0.512-5.813-1.471-8.433-2.046-5.941-6.971-9.007-12.47-11.371-8.441-3.577-16.883-1.98-22.83 4.472-3.901 4.216-8.058 8.305-12.47 11.946-5.947 4.983-15.732 4.344-21.295-1.15-6.907-6.772-13.813-13.607-20.656-20.506-7.035-7.219-6.971-17.44 0-24.531 3.134-3.13 6.203-6.388 9.465-9.263 11.447-10.030 7.162-24.787-1.023-32.964-3.645-3.577-8.441-4.6-13.366-4.727-5.052-0.064-10.104-0.064-15.092 0-9.657 0.064-16.755-8.049-16.691-17.121 0.064-9.391-0.064-18.782 0.128-28.236 0.064-2.491 0.64-5.238 1.727-7.538 3.070-6.708 8.825-9.582 16.052-9.71 5.116-0.064 10.232 0.128 15.348-0.064 2.174-0.064 4.413-0.447 6.459-1.214 5.756-1.98 8.953-6.516 11.319-11.946 3.965-9.007 2.174-17.057-3.261-22.551-3.517-3.577-7.162-7.155-10.744-10.732-7.226-7.091-7.418-17.568-0.256-24.787 6.651-6.708 13.43-13.352 20.144-19.995 6.907-6.772 17.011-6.708 23.853 0.064 3.773 3.769 7.546 7.538 11.383 11.243 4.54 4.408 9.976 6.324 16.243 5.175 2.366-0.447 4.604-1.533 6.907-2.428 7.93-3.002 12.151-8.752 12.534-17.121 0.32-5.302 0.256-10.541 0.128-15.843-0.32-10.094 7.93-17.951 17.714-17.632 4.54 0.192 9.081 0.064 13.621 0.064s9.081 0.128 13.621-0.064c9.657-0.256 17.906 7.602 17.65 17.568-0.128 5.111-0.064 10.221 0 15.332 0.064 3.897 1.087 7.41 3.325 10.668 2.558 3.897 6.459 5.813 10.488 7.73 7.802 3.641 16.179 2.3 22.255-3.705 3.709-3.705 7.354-7.347 11.063-10.988 6.587-6.644 17.203-6.772 23.79-0.064 6.843 6.899 13.621 13.799 20.528 20.506 6.331 6.069 6.587 16.993 0.32 23.317-3.837 3.897-7.738 7.794-11.575 11.691-3.581 3.641-5.436 7.921-5.5 13.032-0.064 4.025 1.407 7.41 2.878 10.86 3.006 7.347 9.209 11.754 17.075 11.882 5.372 0 10.744-0.128 16.052 0 8.889 0.192 16.563 6.452 16.947 15.332 0.512 10.221 0.384 20.57 0.192 30.855zM558.203 588.456h-0.133c-6.668 0-13.269 0.845-19.87 2.016v-6.958c0-217.117 0-496.332-30.539-548.742-24.938-42.656-75.948-46.428-215.307-46.428h-5.001c-133.292 0-180.567 2.146-204.238 44.152-29.339 51.825-29.339 172.445-29.339 391.383 0 220.238 0 341.574 29.806 393.658 24.271 42.461 72.614 44.607 208.773 44.607 4.934 0 9.535 0 14.336 0 2.334 18.337 6.735 35.894 13.536 52.28-9.068 0-18.337 0.065-27.872 0.065-138.493 0-214.774 0-255.648-71.462-36.54-63.984-36.54-175.306-36.54-419.148 0-242.411 0-353.018 35.94-416.612 39.807-70.487 113.755-71.267 247.446-71.267h8.802c136.759 0 219.308 0 261.916 72.892 37.54 64.439 37.54 341.184 37.54 574.622v10.404c-10.869-3.511-22.271-5.462-33.606-5.462zM327.365 95.324c0-23.895-8.745-32.847-32.333-32.847-19.694 0-30.349 5.216-30.349 32.847s10.655 32.847 30.349 32.847c23.588 0 32.333-8.952 32.333-32.847zM227.721 95.324c0-44.054 23.882-68.302 67.311-68.302 44.017 0 69.222 24.882 69.222 68.302 0 43.35-25.205 68.231-69.222 68.231-43.429 0-67.311-24.177-67.311-68.231z" />
<glyph unicode="&#xe90a;" glyph-name="cell-favorite" data-tags="cell-favorite" horiz-adv-x="717" d="M617.625 762.191c-15.299-13.592-22.379-33.189-18.649-52.471l9.799-52.218c1.138-6.132-3.034-9.672-4.868-10.873-1.96-1.201-6.764-3.73-12.896-0.822l-51.396 24.655c-9.483 4.552-19.85 6.764-30.218 6.764s-20.735-2.213-30.218-6.764l-51.396-24.655c-6.069-2.908-11-0.379-12.833 0.822s-6.006 4.741-4.868 10.873l9.799 52.218c3.667 19.281-3.351 38.879-18.649 52.471l-41.597 36.982c-4.868 4.362-3.793 9.419-3.034 11.379 0.632 1.96 3.034 6.701 9.799 7.586l57.465 7.586c21.178 2.845 39.448 14.919 48.867 32.431l25.73 47.476c3.034 5.626 8.661 6.259 10.937 6.259 2.339 0 7.902-0.632 11-6.195l25.666-47.54c9.483-17.511 27.753-29.649 48.867-32.431l57.528-7.586c6.764-0.885 9.103-5.626 9.799-7.586s1.833-7.080-3.034-11.379l-41.597-36.982zM696.015 764.72c17.827 15.868 24.149 39.069 16.437 60.689s-27.753 37.046-52.407 40.333l-57.465 7.649c-4.046 0.506-7.46 2.782-9.23 6.069l-25.73 47.54c-11 20.356-33.316 33-58.223 33-24.845 0-47.16-12.644-58.223-33l-25.73-47.54c-1.77-3.287-5.184-5.563-9.23-6.069l-57.402-7.649c-24.655-3.287-44.758-18.712-52.407-40.333-7.713-21.557-1.391-44.821 16.437-60.689l41.597-36.982c2.908-2.529 4.172-6.259 3.477-9.862l-9.799-52.218c-4.236-22.379 5.69-44.568 25.856-57.907 11.379-7.586 24.718-11.442 38.12-11.442 10.304 0 20.672 2.276 30.218 6.891l51.459 24.655c3.477 1.707 7.776 1.707 11.316 0l51.333-24.655c22.189-10.621 48.362-8.85 68.465 4.552 20.166 13.339 30.028 35.528 25.793 57.907l-9.799 52.218c-0.632 3.603 0.632 7.333 3.54 9.862l41.597 36.982zM288.008 115.284c20.735 0 28.511-7.523 28.511-27.563s-7.776-27.5-28.511-27.5c-17.385 0-26.804 4.362-26.804 27.5s9.419 27.563 26.804 27.563v0zM228.647 87.721c0-36.919 21.051-57.275 59.361-57.275 38.816 0 61.068 20.925 61.068 57.275 0 36.413-22.253 57.275-61.068 57.275-38.31 0-59.361-20.293-59.361-57.275v0zM522.103 581.894c2.149-53.482 2.149-120.114 2.149-202.297 0-197.429 0-306.163-29.649-353.766-24.276-38.816-73.838-42.293-209.314-42.293h-5.121c-129.28 0-175.239 2.023-198.314 40.143-28.448 47.16-28.448 156.843-28.448 355.916 0 200.274 0 310.588 28.954 357.939 22.253 36.413 65.367 40.333 181.182 40.586-5.942 15.046-7.586 31.356-4.299 47.476-117.838-0.19-185.481-4.299-222.463-64.861-35.465-58.223-35.465-159.372-35.465-381.139 0-220.44 0-321.019 34.896-378.864 38.752-64.103 110.568-64.735 240.48-64.735h8.598c132.947 0 213.17 0 254.578 66.252 36.603 58.603 36.603 165.125 36.603 377.346 0 70.993-0.063 129.976-1.454 179.538-6.511 1.707-13.086 3.667-19.155 6.701l-33.758 16.057z" />
<glyph unicode="&#xe90b;" glyph-name="cell-money" data-tags="cell-money" horiz-adv-x="683" d="M519.355 406.772c-6.088 0-12.175 0.799-18.201 1.906v-6.518c0-204.701 0-317.474-28.101-366.851-22.936-40.215-69.791-43.843-197.937-43.843h-4.612c-122.55 0-166.024 2.091-187.791 41.69-26.933 48.823-26.933 162.519-26.933 369.003 0 207.591 0 321.963 27.363 371.093 22.321 40.030 66.717 42.059 191.972 42.059h13.097c2.152 17.279 6.211 33.82 12.483 49.254-8.301 0.061-16.848 0.061-25.58 0.061-127.346 0-197.507 0-235.016-67.393-33.635-60.322-33.635-165.224-33.635-395.075 0-228.559 0-332.846 33.020-392.799 36.648-66.471 104.595-67.209 227.514-67.209h8.117c125.747 0 201.626 0 240.734 68.808 34.557 60.691 34.557 171.127 34.557 391.201v9.777c-10.023-3.32-20.476-5.165-30.93-5.165h-0.123zM538.232 608.398c0.246 29.454 0.369 44.211 0.43 73.727 23.428-4.12 44.765-12.483 44.211-38.247-0.553-22.505-19.123-32.836-44.642-35.48v0zM500.354 787.273c-21.706 2.46-44.273 13.651-43.658 35.172 0.553 18.877 22.567 29.577 44.211 31.667-0.246-26.687-0.369-40.092-0.553-66.84v0zM538.601 778.234c-0.123 29.515-0.246 44.211-0.615 73.727 45.011-11.253 57.924-50.483 84.856-52.697 27.917-2.214 43.351 11.991 41.629 31.667-4.304 49.93-92.358 92.235-127.469 93.65-0.061 2.829-0.061 4.181-0.123 6.948-0.307 16.049-7.071 22.321-17.525 22.321-10.33 0-17.094-6.272-17.402-22.259-0.061-2.767-0.061-4.181-0.123-6.948-58.539-2.214-130.544-55.772-135.032-125.87-3.812-59.154 44.15-80.491 133.434-106.563 0.061-33.082 0.184-49.684 0.492-82.827-52.759 13.343-61.183 66.225-96.355 67.885-25.58 1.291-43.228-13.528-41.69-35.787 2.398-35.541 55.833-100.905 138.845-103.672 0.184-11.314 0.246-16.971 0.43-28.347 0.307-15.987 7.071-22.259 17.402-22.259 10.453 0.061 17.217 6.333 17.525 22.321 0.184 11.314 0.307 17.033 0.43 28.347 65.241 4.981 135.586 54.788 139.091 123.472 3.013 59.707-44.211 92.42-137.8 116.893v0zM305.43 99.505c0-20.784-7.379-28.531-26.994-28.531-16.479 0-25.334 4.55-25.334 28.531 0 24.043 8.855 28.593 25.334 28.593 19.615 0 26.994-7.748 26.994-28.593v0zM222.234 99.505c0-38.308 19.984-59.338 56.202-59.338 36.71 0 57.739 21.645 57.739 59.338 0 37.755-21.030 59.4-57.739 59.4-36.218 0-56.202-21.091-56.202-59.4v0z" />
<glyph unicode="&#xe90c;" glyph-name="cell-recharge" data-tags="cell-recharge" horiz-adv-x="762" d="M332.351 162.286c24.635 0 33.847-9.316 33.847-34.317 0-25.070-9.211-34.385-33.847-34.385-20.636 0-31.776 5.48-31.776 34.385 0 28.837 11.139 34.317 31.776 34.317zM332.351 56.528c46.057 0 72.477 26.029 72.477 71.442 0 45.345-26.42 71.442-72.477 71.442-45.414 0-70.406-25.412-70.406-71.442s24.992-71.442 70.406-71.442zM410.982 418.433c-0.066-18.181-0.199-43.154-116.248-42.555-42.224 0.2-73.825 1.798-90.953 8.791-0.465 0.2-0.929 0.333-1.394 0.466-1.261 0.4-2.456 0.733-3.718 1.132-2.855 0.799-7.568 2.131-8.631 3.13l-1.261 1.332c-0.996 1.066-2.324 5.794-3.12 8.658-0.332 1.265-0.664 2.464-1.062 3.729-0.066 0.466-0.266 0.999-0.465 1.465-6.772 17.182-8.033 48.948-7.768 91.304 0.266 47.483 4.448 79.25 12.813 97.098 6.506 13.985 14.871 19.18 30.871 19.047 8.299 0 16.265-1.066 23.103-7.925 7.104-7.192 12.813-20.778 16.199-46.218 0.863-6.327 5.245-11.721 11.286-13.719s12.747-0.4 17.261 4.196l1.66 1.732c1.992 1.998 3.917 4.062 6.108 6.127 82.456 81.914 99.982 64.132 112.729 51.213s30.274-30.701-52.248-112.548c-2.191-2.198-4.315-4.262-6.373-6.26l-1.527-1.465c-4.647-4.462-6.307-11.122-4.382-17.248 1.992-6.060 7.236-10.522 13.543-11.455 49.659-7.192 53.643-23.042 53.576-40.024zM432.16 631.009c-45.211 45.885-98.256 8.258-146.189-37.427-8.498 27.105-26.157 51.812-65.792 52.012-28.68 0.2-49.327-12.787-61.277-38.36-10.755-22.976-15.734-57.273-16-111.149-0.266-47.084 1.328-80.781 9.826-103.091 0.266-0.799 0.465-1.598 0.664-2.464 1.859-6.793 4.448-16.116 11.618-23.442l1.261-1.265c7.17-7.259 16.465-9.923 23.236-11.854 0.797-0.266 1.66-0.466 2.456-0.733 22.108-8.724 55.767-10.722 102.638-10.922 72.298-0.4 149.509 5.128 149.841 75.92 0.199 39.758-24.232 57.673-51.12 66.53 46.008 47.616 84.049 100.427 38.838 146.246zM493.356 528.077c0 18.241 0.066 43.205 116.193 42.539 42.276-0.2 73.983-1.797 91.133-8.721 0.399-0.2 0.931-0.399 1.396-0.533 1.263-0.333 2.459-0.732 3.722-1.065 2.858-0.799 7.578-2.197 8.641-3.195l1.263-1.265c1.064-1.132 2.327-5.858 3.124-8.654 0.332-1.331 0.731-2.53 1.064-3.795 0.199-0.466 0.332-0.999 0.532-1.465 6.847-17.176 8.243-48.93 8.176-91.27-0.133-47.466-4.188-79.287-12.43-97.062-6.581-14.047-14.89-19.173-30.843-19.106-8.309 0.067-16.352 1.065-23.199 7.922-7.112 7.19-12.896 20.77-16.419 46.201-0.864 6.391-5.318 11.717-11.3 13.714-6.115 2.064-12.829 0.466-17.283-4.127l-1.728-1.797c-1.928-1.997-3.922-3.994-5.982-6.125-82.292-81.817-99.907-64.109-112.736-51.194-12.829 12.982-30.444 30.69 51.848 112.573 2.194 2.197 4.321 4.261 6.448 6.258l1.462 1.465c4.653 4.46 6.248 11.118 4.321 17.242-1.994 6.058-7.312 10.518-13.627 11.45-49.721 7.19-53.776 23.034-53.776 40.010zM472.95 315.513c45.467-45.868 98.445-8.188 146.305 37.413 8.575-27.095 26.389-51.793 66.007-51.993 28.716-0.2 49.322 12.782 61.287 38.412 10.635 22.901 15.488 57.185 15.488 111.109 0.066 47-1.595 80.752-10.237 103.053-0.199 0.865-0.465 1.664-0.731 2.463-1.795 6.79-4.387 16.11-11.633 23.433l-1.263 1.265c-7.245 7.323-16.551 9.919-23.332 11.916l-2.459 0.666c-22.202 8.787-55.836 10.718-102.765 10.984-72.388 0.333-149.628-5.193-149.761-75.959-0.066-39.743 24.462-57.718 51.516-66.505-45.932-47.599-83.887-100.39-38.421-146.259zM536.712 256.368c-2.167-110.189-8.854-179.025-29.472-215.838-24.89-44.504-75.847-48.475-215.159-48.475h-4.582c-133.677 0-180.919 2.269-204.633 46.080-29.286 54.086-29.286 179.97-29.286 408.479 0 229.833 0 356.411 29.782 410.812 24.271 44.315 72.566 46.521 208.72 46.521 138.94 0 189.835-4.034 215.097-49.799 19.070-34.418 26.253-95.942 28.977-192.137 20.123 2.017 38.079 2.143 49.905 2.143h3.653c-3.096 106.658-11.702 173.162-35.788 216.784-42.97 77.598-130.024 77.598-261.844 77.598-138.445 0-214.726 0-255.528-74.573-36.593-66.756-36.593-182.933-36.593-437.35 0-252.967 0-368.451 35.973-434.766 39.812-73.627 113.678-74.384 247.294-74.384h8.854c136.711 0 219.246 0 261.782 76.086 27.862 49.862 35.045 130.108 36.902 267.655-16.903-11.221-34.921-19.983-54.053-24.837z" />
<glyph unicode="&#xe90d;" glyph-name="cell-reload" data-tags="cell-reload" horiz-adv-x="786" d="M320.682 120.869c20.589 0 28.205-7.767 28.205-28.611 0-20.901-7.617-28.668-28.205-28.668-17.137 0-26.48 4.569-26.48 28.668 0 24.042 9.342 28.611 26.48 28.611zM320.682 32.695c38.381 0 60.398 21.701 60.398 59.563 0 37.805-22.017 59.506-60.398 59.506-37.786 0-58.672-21.13-58.672-59.506 0-38.434 20.886-59.563 58.672-59.563zM555.421 194.623c-3.665-74.888-11.509-124.75-28.612-154.062-25.848-44.567-78.765-48.538-223.434-48.538h-5.208c-138.369 0-187.428 2.332-212.054 46.080-30.413 54.086-30.413 179.97-30.413 408.479 0 229.833 0 356.411 30.927 410.812 25.205 44.315 75.357 46.521 216.747 46.521 144.284 0 197.137-4.034 223.37-49.736 8.166-14.246 14.21-33.031 18.775-56.985 28.227-2.143 59.347-24.017 59.347-24.017-5.722 41.289-15.689 83.524-29.577 107.793-44.558 77.598-135.025 77.598-271.915 77.598-143.77 0-222.984 0-265.357-74.636-37.936-66.756-37.936-182.87-37.936-437.35 0-252.967 0-368.451 37.293-434.766 41.279-73.564 118.051-74.384 256.805-74.384h9.195c141.969 0 227.678 0 271.851 76.086 24.369 42.046 33.499 105.713 36.907 207.076-17.553-13.301-48.609-24.458-56.711-25.971zM785.237 505.153l-22.926 0.365c-13.677 0.203-34.193 0.487-61.547 0.852 2.094 39.193-11.418 84.379-40.537 135.557-43.678 76.767-131.577 102.687-183.607 103.878-26.013 0.595-67.472-6.135-105.672-23.72-45.647-21.013-83.119-56.429-81.945-57.829 12.544-14.906 24.859-32.036 39.018-50.499 1.467-1.913 26.942 31.692 105.483 47.274 110.618 21.947 179.678-67.56 183.282-146.873 0.101-2.217 0.68-4.381 1.051-7.24-29.352 0.243-58.148 0.426-86.945 0.548l-0.68-1.278c0.927-0.669 2.039-1.156 2.843-1.947 18.168-17.644 36.15-35.045 53.576-52.020 22.246-21.66 43.565-42.529 63.154-62.303 1.298-1.399 130.633 109.638 136.133 114.079-0.247 0.365-0.433 0.791-0.68 1.156zM128.183 468.351l21.54 0.884c12.844 0.542 32.1 1.374 57.755 2.496-2.579-37.56 9.847-80.006 38.113-127.338 44.477-70.998 134.404-91.036 187.24-89.375 26.392 0.83 67.689 9.491 104.273 28.347 43.032 22.532 75.333 58.386 73.996 59.66-14.202 13.568-28.328 29.272-44.232 46.151-1.637 1.748-22.393-31.729-97.63-50.842-107.832-26.919-178.329 54.886-183.045 130.473-0.126 2.113-0.698 4.149-1.084 6.861 27.421 1.346 54.291 2.721 81.13 4.153l0.576 1.257c-0.892 0.59-1.949 0.995-2.731 1.707-17.555 15.881-34.709 31.54-51.126 46.821-20.658 19.499-40.14 38.291-57.767 56.131-1.158 1.267-122.23-111.78-127.595-116.319 0.216-0.335 0.371-0.732 0.586-1.068z" />
<glyph unicode="&#xe90e;" glyph-name="cell-voice" data-tags="cell-voice" horiz-adv-x="791" d="M747.125 458.463c0.19 33.883-3.603 59.611-11.568 85.023-8.597 27.435-24.906 51.014-45.324 71.748-2.908 2.908-6.132 5.057-9.925 6.069-6.574 1.77-12.706-0.442-15.298-5.816-2.718-5.626-1.075-12.896 4.299-18.711 5.5-6.005 11.189-12.011 16.246-18.395 15.424-19.407 24.843-41.721 30.406-65.553 1.96-8.66 2.908-17.51 3.793-26.423 3.35-31.164-0.253-61.128-10.81-90.585-7.459-20.544-18.964-38.813-34.135-54.996-3.414-3.73-7.017-7.712-9.482-12.074-3.54-6.069-1.454-13.338 3.477-16.625 5.184-3.54 12.137-3.034 17.826 1.707 4.109 3.54 8.091 7.396 11.695 11.505 22.947 26.234 37.486 56.387 44.060 90.143 3.224 16.688 4.551 33.44 4.741 42.985zM655.465 260.351c-4.299-2.339-8.724-4.488-13.212-6.321-9.925-3.919-20.165-7.206-30.532-9.672-9.103-2.086-18.395-3.793-27.561-5.057-7.333-1.011-14.855-1.327-22.188-1.896-27.182-2.149-53.605-0.506-80.598 3.919-15.108 2.529-30.090 6.258-44.186 12.327-2.655 1.138-3.097 2.276-2.592 3.73 1.833 5.057 3.224 10.557 6.069 15.677 7.080 12.769 21.493 21.366 41.911 22.441 10.81 0.569 21.809 0.885 32.808 1.327 9.925 0.506 19.343 2.402 27.94 6.827 7.080 3.54 13.591 7.712 16.056 15.235 1.833 5.563 0.126 10.999-1.454 16.436-1.77 6.069-4.046 12.2-5.373 18.522-1.833 8.787-3.793 18.142-0.316 27.94 1.58 4.615-1.644 8.155-6.701 8.155-7.206 0-14.35-0.126-21.556-0.063-4.931-0.063-9.925 0-15.677 0.063 1.327 0.885 2.023 1.391 2.718 1.77 10.81 5.563 21.746 11.252 32.745 17.005 5.247 2.781 5.879 6.764 1.77 11.189-3.54 3.73-5.689 8.091-5.12 13.338 0.442 3.73 1.264 7.522 2.212 11.252 2.086 8.597 6.321 15.235 15.045 18.964 6.385 2.718 12.643 6.321 18.458 10.241 5.247 3.54 7.649 9.040 5.563 15.361-1.517 4.362-3.287 8.787-5.879 12.58-10.62 15.677-21.872 30.848-32.365 46.020-7.839 11.189-14.35 22.82-18.332 34.704-3.161 9.545-5.373 19.027-7.902 28.067-3.034 10.746-5.626 21.177-8.724 30.785-5.12 15.74-12.769 28.889-21.682 39.761-2.465 3.034-4.994 5.879-7.522 8.724 1.075 0.316 1.833 0.695 2.718 0.822 10.367 1.264 20.671 2.845 30.912 3.603 19.47 1.391 38.624 1.327 58.157-0.442 12.959-1.138 25.791-2.971 38.624-5.752 16.625-3.477 32.492-9.356 47.663-17.447 7.712-4.109 16.752-3.097 19.596 2.086 3.161 5.816-0.19 13.148-8.155 16.941-17.637 8.344-35.905 13.844-54.68 16.941-14.666 2.402-29.142 4.172-43.744 4.741-12.706 0.442-25.286 0.948-37.928 0.885-19.912 0-39.509-1.454-59.737-4.425-15.551-2.212-30.848-5.689-45.83-11.126-21.872-7.902-42.416-19.533-60.559-34.894-22.883-19.343-40.646-43.554-52.467-70.483-8.281-19.091-13.275-38.813-16.12-58.915-1.96-13.465-3.35-26.676-3.793-39.951-0.506-13.148-0.506-26.234-0.506-39.319 0.063-16.625 1.58-32.998 3.793-49.812 1.896-14.792 4.867-29.521 9.608-43.997 8.028-24.401 20.418-47.284 37.612-67.323 25.791-30.027 59.421-50.508 96.464-61.254 19.154-5.563 38.624-8.028 57.967-9.482 8.85-0.695 17.637-1.011 26.36-1.391 17.573-0.822 34.768-0.253 52.215 1.201 11.758 0.948 23.516 2.529 35.463 4.299 19.343 2.845 37.928 8.597 55.881 17.005 7.649 3.54 11.252 11.189 8.471 16.625-2.845 5.31-11.947 7.017-21.809 1.517zM782.146 526.102c-2.276 17.889-6.069 35.463-12.263 52.72-5.31 14.792-12.2 29.142-21.366 42.227-7.143 10.43-15.424 20.228-24.021 29.521-5.247 5.563-12.453 7.333-17.384 5.12-8.091-3.603-7.965-13.781 0.19-22.251 4.362-4.551 8.787-9.166 12.769-14.033 17.131-20.797 31.164-43.175 37.928-68.84 5.436-20.608 8.471-41.089 9.925-61.95 1.707-24.59 0.569-48.422-2.845-72.822-2.086-14.792-4.678-29.774-10.114-43.807-8.091-20.608-19.027-40.078-33.25-57.651-5.057-6.195-10.683-11.947-15.993-17.889-4.804-5.373-5.942-12.643-2.971-16.815 4.551-6.258 14.16-5.816 21.619 1.391 4.551 4.551 8.85 9.419 12.896 14.35 30.153 37.106 42.416 81.23 46.589 126.491 1.391 14.792 1.77 29.331 2.023 43.049-0.19 20.987-1.138 40.836-3.73 61.191zM624.617 380.584c-6.321-6.511-7.459-15.551-3.414-21.935 6.258-9.925 19.217-10.241 28.446-0.632 29.078 30.090 41.658 66.438 42.29 106.452-0.253 18.901-2.655 35.842-8.155 52.467-7.27 22.188-18.901 41.784-35.589 58.41-7.27 7.143-17.89 7.459-24.401 1.138-3.414-3.287-4.994-7.522-4.931-12.011 0.063-4.425 1.833-8.976 5.373-12.832 2.339-2.465 4.678-4.931 6.89-7.522 15.93-18.774 24.969-40.52 27.435-64.984 2.276-22.188-0.948-43.554-10.114-63.972-5.752-12.959-13.97-24.337-23.832-34.578zM522.969 39.419c-25.412-44.629-77.437-48.675-219.668-48.675h-5.184c-135.973 0-184.268 2.339-208.416 46.272-29.9 54.174-29.9 180.412-29.9 409.625 0 230.414 0 357.347 30.343 411.901 24.78 44.439 74.15 46.715 213.157 46.715 141.852 0 193.813-4.109 219.605-49.939 12.896-22.883 20.481-57.777 24.969-106.895 18.332 0 38.624 7.396 54.68 1.96-5.184 59.168-14.729 101.079-31.923 131.801-43.807 77.816-132.812 77.816-267.331 77.816-141.409 0-219.225 0-260.883-74.845-37.296-66.943-37.296-183.383-37.296-438.514 0-253.74 0-369.485 36.664-436.049 40.583-73.77 116.060-74.592 252.476-74.592h9.040c139.576 0 223.84 0 267.205 76.362 21.24 37.233 30.659 91.47 34.957 173.711-17.131 0.063-39.256-9.166-55.312-9.482-3.982-65.553-11.758-110.055-27.182-137.174zM305.767 142.394c21.809 0 29.9-8.597 29.9-31.733 0-23.073-8.091-31.67-29.9-31.67-18.269 0-28.193 5.057-28.193 31.67 0 26.676 9.925 31.733 28.193 31.733zM305.767 44.792c40.71 0 64.099 23.958 64.099 65.869s-23.389 65.932-64.099 65.932c-40.204 0-62.392-23.452-62.392-65.932s22.188-65.869 62.392-65.869z" />
<glyph unicode="&#xe90f;" glyph-name="cell" data-tags="cell" horiz-adv-x="592" d="M283.804 150.838c19.673 0 26.953-8.906 26.953-32.831s-7.279-32.831-26.953-32.831c-16.394 0-25.313 5.208-25.313 32.831s8.919 32.831 25.313 32.831zM283.804 49.778c36.658 0 57.709 24.831 57.709 68.229s-21.051 68.304-57.709 68.304c-36.133 0-56.069-24.303-56.069-68.304s19.936-68.229 56.069-68.229zM83.598 858.533c24.211 44.392 72.563 46.651 208.761 46.651 138.984 0 189.906-4.082 215.189-49.859 30.639-55.617 30.639-180.993 30.639-408.711 0-227.28 0-352.437-30.568-407.253-24.926-44.61-75.92-48.62-215.26-48.62h-5.285c-133.056 0-180.336 2.333-203.976 46.214-29.282 54.232-29.282 180.483-29.282 409.658 0 230.415 0 357.321 29.782 411.918zM283.503-64h8.856c136.77 0 219.26 0 261.826 76.319 37.638 67.353 37.638 189.959 37.638 434.296 0 244.702 0 367.453-37.567 435.535-42.924 77.85-129.985 77.85-261.898 77.85-138.484 0-214.76 0-255.613-74.861-36.567-66.989-36.567-183.399-36.567-438.524 0-253.74 0-369.494 35.924-436.046 39.852-73.841 113.772-74.569 247.399-74.569z" />
<glyph unicode="&#xe910;" glyph-name="chat-comic" data-tags="chat-comic" horiz-adv-x="1331" d="M303.6 445.617c-13.964 13.964-18.991 27.493 1.676 48.159 20.728 20.728 34.257 15.701 48.221 1.738 13.902-13.902 18.928-27.493-1.738-48.159-20.728-20.728-34.195-15.701-48.159-1.738zM392.595 534.611c-38.478 38.478-86.885 37.795-126.417-1.676-39.471-39.533-40.153-87.94-1.738-126.417 38.478-38.478 86.947-37.795 126.417 1.676 39.533 39.533 40.215 87.94 1.738 126.417zM626.383 465.861c-13.964 13.964-18.991 27.493 1.738 48.159 20.666 20.728 34.195 15.701 48.159 1.738 13.964-13.902 18.991-27.431-1.738-48.159-20.666-20.728-34.195-15.701-48.159-1.738zM715.44 554.856c-38.54 38.478-86.947 37.795-126.48-1.676-39.471-39.533-40.153-87.94-1.676-126.417 38.416-38.478 86.947-37.795 126.417 1.676 39.533 39.533 40.153 87.94 1.738 126.417zM968.443 465.861c-13.964 13.964-18.991 27.493 1.676 48.159 20.728 20.728 34.257 15.701 48.221 1.738 13.902-13.902 18.928-27.431-1.738-48.159-20.728-20.728-34.195-15.701-48.159-1.738zM1057.438 554.856c-38.478 38.478-86.885 37.795-126.417-1.676-39.471-39.533-40.153-87.94-1.676-126.417 38.416-38.478 86.885-37.795 126.355 1.676 39.533 39.533 40.215 87.94 1.738 126.417zM1255.293 513.287c0.683-13.591 1.055-27.493 1.117-41.829v-1.365c0-14.026-0.434-27.431-1.055-40.588-6.082-135.23-43.318-175.507-116.177-238.623-75.466-65.412-316.819-99.173-478.487-102.834-9.93-0.186-19.921-0.372-30.224-0.372h-0.931c-10.55 0-20.914 0.186-31.154 0.496-59.578 1.614-174.204 7.385-222.611 17.563-7.696 1.614-15.515-0.745-21.969-6.516-0.496-0.496-0.993-0.931-1.489-1.489-19.487-17.936-42.574-33.016-68.701-44.808-21.597-9.806-35.933-14.398-59.020-18.804 3.227 31.030 6.64 50.331 13.964 79.624 4.965 20.046-1.862 41.953-16.012 51.138-103.827 67.274-152.297 128.031-152.297 305.214 0 157.448 37.236 229.376 117.232 298.698 80.058 69.322 265.371 103.083 442.989 103.083s428.715-33.761 508.711-103.083c72.425-62.743 109.661-121.763 116.115-255.504v0zM657.277-5.477c175.632 3.848 440.196 42.263 526.398 116.922 91.477 79.376 139.45 147.704 146.091 313.716l-0.124 84.589c-7.075 164.771-54.986 251.097-145.967 330.038-91.167 79.003-365.537 117.419-557.056 117.419-191.457 0-387.258-38.416-478.425-117.419-98.925-85.706-146.96-185.872-146.96-373.543 0-198.222 54.055-284.796 165.081-369.199-3.786-19.053-6.33-37.236-8.875-60.447-0.496-5.275-1.8-18.494-1.489-29.044 0.31-12.66 2.731-24.576 6.951-34.692 1.489-3.91 3.413-7.571 5.585-10.923 0.745-1.055 1.427-2.172 2.172-3.165 0.931-1.241 1.8-2.296 2.482-3.103 2.544-2.979 5.213-5.461 8.068-7.509 7.571-5.71 16.446-8.875 25.569-9.371h2.607c7.509 0 15.639 1.427 19.053 2.048 27.307 5.337 45.118 10.985 70.687 22.59 27.803 12.598 53.124 28.486 75.404 47.352 49.4-9.495 160.923-14.895 219.943-16.26h62.805z" />
<glyph unicode="&#xe911;" glyph-name="chat" data-tags="chat" horiz-adv-x="1081" d="M384.681 677.883c4.892 0.171 9.785 0.569 14.62 0.455 7.452-0.171 13.938-2.503 17.18-9.785 5.973-13.596 11.89-27.42 17.579-41.301 8.078-19.74 15.474-39.993 24.405-59.563 5.916-12.857 3.015-24.007-4.494-34.418-8.533-11.776-18.034-22.812-27.477-33.906-7.452-8.761-8.704-16.156-2.844-25.657 32.882-53.589 75.548-98.588 131.755-128.512 13.995-7.396 28.501-13.653 43.008-19.627 10.581-4.437 16.896-2.162 24.292 6.827 12.8 15.531 25.486 31.232 38.172 46.763 8.476 10.297 15.132 12.629 27.193 7.225 34.532-15.588 68.608-31.516 102.684-46.478 7.509-3.356 10.069-9.102 9.671-16.725-1.081-19.115-3.925-38.4-15.189-55.068-7.168-10.638-17.408-20.309-27.989-27.989-34.304-25.145-71.282-37.49-111.502-26.908-26.283 6.997-52.224 15.872-78.279 25.031-60.7 21.447-111.559 60.359-156.729 107.406-37.205 38.798-69.973 80.725-95.744 126.18-20.992 37.092-30.151 76.288-19.172 119.296 7.794 30.549 25.6 55.808 49.778 76.971 8.932 7.908 18.887 10.069 39.083 9.785zM163.6 64.274c6.656 1.024 11.719 1.593 16.612 2.56 41.643 7.737 84.139 17.294 127.26 28.558 4.836 1.252 8.761 0.398 13.426-2.503 18.261-11.207 36.181-22.983 54.727-32.711 64.398-33.849 128.853-46.763 196.665-39.993 83.228 8.192 158.72 47.559 229.945 107.236 48.811 41.074 89.771 89.316 120.604 142.279 41.984 72.306 58.425 144.043 47.332 220.388-10.069 69.689-42.78 134.258-92.16 196.153-31.687 39.652-67.982 75.207-108.316 105.301-52.907 39.481-107.918 67.698-166.4 79.36-89.088 17.749-171.804-0.171-255.602-52.053-62.236-38.571-116.793-90.169-160.711-151.040-30.606-42.382-53.419-86.528-66.844-133.006-11.776-40.448-15.076-80.668-11.207-121.401 2.958-31.687 11.093-62.805 23.609-93.525 15.189-37.319 36.466-72.932 62.293-107.236 1.82-2.446 2.731-6.713 2.048-9.33-7.396-27.591-14.564-54.784-20.935-81.636-4.38-18.773-8.42-37.376-12.345-57.401zM511.76 958.966c18.603 0.171 37.262 0.114 55.865-0.284 2.389-0.626 4.722-1.593 7.111-1.877 47.104-5.575 93.241-20.651 139.492-45.113 81.124-42.78 155.591-106.382 218.795-182.386 59.847-71.851 101.604-145.465 116.167-223.915 1.934-10.468 4.039-20.878 5.916-31.346 0.455-18.603 0.569-37.205 0.398-55.865-0.626-2.332-1.365-4.665-1.82-7.054-2.731-16.555-4.779-33.28-9.102-49.835-18.432-70.827-58.027-137.728-113.095-202.411-46.933-55.125-100.807-103.765-159.516-142.791-59.676-39.595-119.865-65.934-182.443-75.264-93.582-13.938-180.565 10.012-270.336 66.048-5.461 3.47-9.956 4.38-15.303 2.958-14.165-3.868-28.501-6.884-42.61-9.899-66.162-14.108-129.934-23.324-190.692-25.828-0.228 0.967-0.512 1.934-0.796 2.958 0.626 3.072 1.536 5.916 1.82 9.273 2.162 26.795 5.518 54.272 10.126 82.318 6.884 42.098 16.555 85.504 27.819 130.162 0.853 3.413-0.398 8.59-2.503 12.231-7.282 12.572-15.531 24.633-23.040 36.921-21.675 35.499-37.092 71.623-46.82 108.373-17.863 67.641-15.474 132.949 7.68 200.761 20.651 60.587 55.694 118.272 101.49 173.796 46.194 55.922 99.214 105.586 157.298 145.408 57.287 39.253 114.631 66.219 174.535 76.914 11.264 1.934 22.414 3.868 33.564 5.746z" />
<glyph unicode="&#xe912;" glyph-name="check-circle" data-tags="check-circle" d="M512 960c141.49 0 262.195-50.078 362.117-150.235s149.883-220.744 149.883-361.765c0-141.021-49.96-261.608-149.883-361.765s-220.627-150.235-362.117-150.235c-141.49 0-262.195 50.078-362.117 150.235s-149.883 220.744-149.883 361.765c0 141.021 49.96 261.608 149.883 361.765s220.627 150.235 362.117 150.235zM410.2 167.962l460.44 461.521-71.944 74.516-388.496-389.408-184.656 182.685-71.944-72.113 256.6-257.202z" />
<glyph unicode="&#xe913;" glyph-name="check-comic" data-tags="check-comic" horiz-adv-x="985" d="M104.468 208.544c-30.464 65.792-45.888 145.856-45.888 239.424 0 142.336 35.52 253.568 105.472 330.56 73.472 80.832 184 121.856 328.384 121.856 144.512 0 255.040-41.024 328.448-121.856 70.016-76.992 105.472-188.224 105.472-330.56 0-142.272-35.456-253.504-105.472-330.496-73.408-80.896-183.936-121.856-328.448-121.856-103.424 0-189.312 21.12-256.768 62.72 0 0-95.424 71.040-131.2 150.208zM75.156 148c12.352-21.056 26.304-40.768 41.92-58.944 1.024-1.536 2.112-3.072 3.52-4.416 0.32-0.32 0.64-0.512 0.96-0.768 0.768-0.896 1.536-1.92 2.432-2.816 84.096-92.608 208.128-139.584 368.448-139.584 160.384 0 284.416 46.976 368.576 139.584 79.296 87.296 119.488 210.752 119.488 366.912 0 156.224-40.192 279.68-119.488 366.976-84.16 92.608-208.192 139.584-368.576 139.584-160.32 0-284.352-46.976-368.448-139.584-79.36-87.296-119.488-210.752-119.488-366.976 0-118.080 23.104-217.344 68.672-296.512 0.576-1.216 1.216-2.368 1.984-3.456zM439.322 138.376c-7.163 0-14.261 2.456-20.134 7.035l-205.080 163.133c-14.326 11.415-16.972 32.653-5.872 47.387s31.749 17.455 46.011 6.040l171.265-136.188c46.011 109.972 179.203 405.776 315.815 497.763 15.165 10.353 35.492 5.907 45.43-9.69s5.743-36.503-9.486-46.723c-148.099-99.884-305.941-503.404-307.426-507.519-3.872-9.823-11.938-17.256-21.876-20.043-2.839-0.796-5.743-1.195-8.647-1.195z" />
<glyph unicode="&#xe914;" glyph-name="check" data-tags="check" horiz-adv-x="1317" d="M471.361-44.115l845.424 847.408-132.097 136.821-713.326-715.001-339.050 335.432-132.097-132.408z" />
<glyph unicode="&#xe915;" glyph-name="conectivity" data-tags="conectivity" horiz-adv-x="1170" d="M299.262 610.852c-49.857 0-99.828-4.159-150.597-12.478-31.567-6.609-66.381-41.365-73.162-74.183-16.41-99.822-16.41-198.048 0.171-299.067 6.61-31.622 41.424-66.377 74.187-73.271 99.6-16.295 197.661-16.352 298.458 0.171 32.649 7.122 67.065 41.706 73.902 74.297 16.353 99.822 16.353 198.048-0.228 299.067-6.667 31.565-41.424 66.377-74.244 73.214-49.686 8.148-99.030 12.25-148.488 12.25zM298.863 82.685c-52.934 0-105.811 4.387-159.428 13.218-56.239 11.68-108.318 63.813-119.771 118.795-17.835 108.425-17.835 212.691-0.171 319.92 11.624 56.178 63.703 108.254 118.745 119.763 108.546 17.89 212.818 17.89 319.996 0.228 56.182-11.737 108.261-63.813 119.771-118.795 17.835-108.425 17.835-212.691 0.228-319.92-11.738-56.178-63.817-108.311-118.802-119.763l-1.197-0.228c-53.618-8.831-106.551-13.218-159.371-13.218zM882.724 903.080c-47.956 0-96.021-4.126-144.854-12.378-30.363-6.556-63.85-41.033-70.372-73.588-15.784-99.022-15.784-196.462 0.164-296.671 6.358-31.368 39.845-65.845 71.358-72.684 95.802-16.165 190.125-16.221 287.078 0.17 31.404 7.065 64.508 41.372 71.084 73.701 15.73 99.022 15.73 196.462-0.219 296.671-6.412 31.312-39.845 65.845-71.413 72.628-47.792 8.082-95.254 12.152-142.826 12.152zM882.341 379.145c-50.915 0-101.776 4.352-153.349 13.113-54.094 11.586-104.188 63.302-115.204 117.843-17.155 107.557-17.155 210.987-0.164 317.357 11.181 55.728 61.274 107.387 114.217 118.804 104.407 17.747 204.703 17.747 307.795 0.226 54.039-11.643 104.133-63.302 115.204-117.843 17.155-107.557 17.155-210.987 0.219-317.357-11.29-55.728-61.384-107.444-114.272-118.804l-1.151-0.226c-51.573-8.761-102.489-13.113-153.295-13.113zM811.104 267.588c-29.885 0-59.771-2.515-90.135-7.486-18.925-3.953-39.707-24.794-43.78-44.378-9.822-59.77-9.822-118.581 0.12-179.010 3.953-18.925 24.735-39.767 44.379-43.839 59.591-9.762 118.284-9.762 178.594 0.060 19.524 4.252 40.187 24.974 44.259 44.498 9.822 59.71 9.822 118.521-0.12 179.010-4.013 18.865-24.795 39.707-44.439 43.779-29.766 4.911-59.292 7.366-88.878 7.366zM810.865-63.601c-34.377 0-68.754 2.875-103.611 8.564-36.593 7.606-70.431 41.503-77.858 77.257-11.619 70.43-11.619 138.225-0.12 207.936 7.546 36.533 41.384 70.37 77.199 77.856 70.551 11.619 138.287 11.619 207.94 0.12 36.533-7.606 70.431-41.443 77.858-77.197 11.619-70.49 11.619-138.285 0.18-207.936-7.606-36.533-41.504-70.43-77.259-77.856l-0.779-0.18c-34.796-5.689-69.234-8.564-103.551-8.564z" />
<glyph unicode="&#xe916;" glyph-name="download" data-tags="download" horiz-adv-x="1463" d="M985.177 632.531c24.015-24.015 56.869-56.869-96.488-210.164-55.771-55.771-99.413-95.756-131.109-109.288-0.914-0.427-1.707-0.792-2.56-1.219-2.072-1.158-4.206-2.316-6.339-3.535-4.754-2.682-12.8-7.192-15.543-7.192h-3.352c-2.743 0-10.728 4.51-15.543 7.192-2.072 1.219-4.267 2.377-6.339 3.535-0.792 0.427-1.646 0.792-2.499 1.219-31.695 13.531-75.398 53.516-131.17 109.288-62.598 62.598-99.109 109.714-111.726 144.152-9.935 27.063-5.79 44.922 15.238 66.011 10.971 10.971 22.918 20.297 40.96 20.297 18.834 0 44.373-10.118 82.469-39.010 9.509-7.192 22.309-8.35 32.975-2.926 10.667 5.364 17.31 16.396 17.128 28.282l-0.061 4.632c-0.061 5.242-0.122 10.484-0.122 16.091 0 216.808 46.446 216.808 80.335 216.808 34.011 0 80.457 0 80.457-216.808 0-5.79-0.122-11.276-0.183-16.762l-0.061-3.901c-0.183-11.947 6.461-22.979 17.128-28.343 10.667-5.425 23.467-4.267 32.975 2.926 74.728 56.564 100.998 41.143 123.429 18.712zM731.432 939.243c-120.137 0-139.947-119.771-142.507-243.261-47.116 24.137-102.949 33.097-155.368-19.2-37.912-37.912-47.909-82.286-29.745-131.779 16.274-44.373 55.162-95.817 126.171-166.827 61.989-61.928 108.678-104.046 149.394-121.966 1.402-0.792 2.743-1.524 4.145-2.316 11.459-6.461 27.185-15.299 46.263-15.299h3.352c19.139 0 34.804 8.838 46.263 15.299 1.402 0.792 2.804 1.524 4.145 2.316 40.716 17.92 87.406 60.038 149.394 121.966 95.512 95.573 189.684 205.288 96.427 298.606-52.358 52.297-108.19 43.337-155.307 19.2-2.56 123.49-22.37 243.261-142.629 243.261zM184.879 57.025c115.078-68.389 287.33-100.267 541.623-100.267 2.499 0 5.059 0 7.558 0 258.255 0.67 432.152 33.402 547.291 103.010 119.528 72.29 177.432 186.819 177.067 350.171-0.061 17.189-14.080 31.147-31.269 31.147h-0.122c-17.25-0.061-31.208-14.080-31.147-31.33 0.67-279.832-184.93-389.303-661.943-390.461-243.627-0.792-412.465 29.318-517.12 91.49-101.79 60.465-149.394 154.453-149.76 295.68-0.061 17.25-14.019 31.208-31.269 31.208h-0.061c-17.25-0.061-31.208-14.080-31.147-31.39 0.366-163.17 59.368-277.394 180.297-349.257z" />
<glyph unicode="&#xe917;" glyph-name="email" data-tags="email" horiz-adv-x="1609" d="M1474.908 75.1c-4.53-26.53-5.625-27.399-34.41-29.646-95.926-7.538-191.997-13.7-288.142-18.411-115.871-5.364-231.814-8.046-347.831-9.278-116.017 1.232-232.033 3.914-347.904 9.278-96.145 4.712-192.143 10.873-288.142 18.411-28.785 2.247-29.881 3.117-34.41 29.646-29.369 182.953-30.684 366.123-3.872 549.511 7.817 47.84 17.023 95.463 28.054 142.506 1.023 4.132 1.973 8.336 3.653 15.004 5.041-3.624 8.621-5.799 11.543-8.481 46.611-42.476 93.661-84.445 141.076-126.124 76.93-66.904 154.591-133.156 232.252-199.407 76.127-64.802 152.327-129.749 228.234-194.913 7.379-7.683 18.484-11.308 29.516-10.945 11.032-0.362 22.064 3.262 29.516 10.945 75.835 65.164 152.034 130.111 228.234 194.913 77.661 66.252 155.249 132.503 232.179 199.407 47.488 41.679 94.537 83.648 141.076 126.124 2.995 2.682 6.575 4.857 11.543 8.481 1.68-6.669 2.703-10.873 3.653-15.004 11.032-47.043 20.237-94.666 28.054-142.506 26.885-183.388 25.497-366.558-3.872-549.511zM804.525 875.918c188.856-3.117 377.565-15.439 565.617-37.185-1.68-2.609-2.338-4.277-3.507-5.436-57.643-54.509-116.528-107.713-175.778-160.482-40.109-35.663-80.291-71.253-120.692-106.553-84.748-73.573-170.007-146.493-254.974-219.848-4.091-3.624-7.379-4.494-10.666-3.987-3.288-0.507-6.575 0.362-10.74 3.987-84.894 73.355-170.226 146.275-254.9 219.848-40.474 35.3-80.656 70.891-120.765 106.553-59.25 52.769-118.062 105.974-175.705 160.482-1.169 1.16-1.9 2.827-3.58 5.436 188.125 21.746 376.835 34.068 565.691 37.185zM1515.236 807.419c-14.977 48.493-64.145 94.013-116.601 101.262-196.965 29.502-395.026 46.608-594.11 51.32-199.084-4.712-397.145-21.818-594.11-51.32-52.456-7.249-101.624-52.769-116.674-101.262-73.643-238.332-85.697-490.943-38.283-739.423 11.105-49.942 60.858-92.419 112.364-96.84 68.237-6.959 136.546-12.975 205.002-18.194 143.706-10.293 287.704-15.077 431.702-16.962 143.998 1.885 287.923 6.669 431.702 16.962 68.383 5.219 136.692 11.235 205.002 18.194 51.506 4.422 101.186 46.898 112.291 96.84 47.415 248.48 35.433 501.091-38.283 739.423z" />
<glyph unicode="&#xe918;" glyph-name="facebook-fill" data-tags="facebook-fill" d="M967.487-64h-910.97c-31.223 0-56.517 25.31-56.517 56.52v910.963c0 31.218 25.298 56.517 56.517 56.517h910.97c31.211 0 56.513-25.298 56.513-56.517v-910.963c0-31.214-25.306-56.52-56.513-56.52zM708.701-64v397.032h135.857l20.343 154.73h-156.2v98.785c0 44.798 12.682 75.326 78.171 75.326l83.528 0.036v138.392c-14.446 1.886-64.029 6.099-121.715 6.099-120.43 0-202.879-72.108-202.879-204.529v-114.109h-136.206v-154.73h136.206v-397.032h162.895z" />
<glyph unicode="&#xe919;" glyph-name="facebook" data-tags="facebook" d="M512 956.436c-280.351 0-508.436-228.086-508.436-508.436 0-280.33 228.086-508.436 508.436-508.436 280.33 0 508.436 228.106 508.436 508.436 0 280.351-228.065 508.436-508.436 508.436zM638.444 430.1h-82.719c0-132.157 0-294.83 0-294.83h-122.573c0 0 0 161.096 0 294.83h-58.266v104.202h58.266v67.4c0 48.271 22.938 123.699 123.699 123.699l90.829-0.348v-101.151c0 0-55.194 0-65.925 0s-25.989-5.366-25.989-28.385v-61.235h93.389l-10.711-104.182z" />
<glyph unicode="&#xe91a;" glyph-name="house" data-tags="house" horiz-adv-x="1092" d="M218.181-59.658c-31.959 0-57.872 20.652-61.642 48.999-5.026 37.692-8.952 75.54-12.721 113.31-4.005 41.225-7.774 82.608-10.915 123.833-0.55 7.146-0.707 14.37-0.785 21.594 0 5.811-0.157 11.543-0.471 17.432-0.079 2.199-0.471 4.633-0.864 6.989-0.707 4.397-1.256 8.324-1.335 12.171-0.707 39.262-1.021 78.681-1.256 118.1v6.439l-18.532 0.236c-23.086 0.393-46.094 0.785-69.023 1.413-22.458 0.628-38.398 20.416-40.597 50.413-1.099 15.626 3.062 30.703 11.857 42.56 50.884 68.63 100.904 126.346 153.044 176.444 47.586 45.623 98.077 90.381 150.060 133.020 45.466 37.22 94.7 69.808 132.549 93.994 20.73 13.271 41.932 26.777 62.819 39.184 10.13 5.889 23.008 9.187 36.278 9.187s26.227-3.298 36.435-9.266c33.137-19.317 68.552-41.539 108.363-68.159 34.708-23.086 64.861-45.151 91.952-67.374 36.749-30.075 74.755-63.369 116.216-101.767 34.629-32.116 79.388-75.148 119.278-123.362 9.894-12.014 19.631-24.5 29.29-36.985l6.753-8.795c4.79-6.125 9.816-12.25 14.527-18.061l8.952-10.836c10.993-13.82 16.019-34.629 12.721-52.925-3.377-19.081-15.705-41.775-39.419-42.482-20.966-0.707-42.325-0.942-63.605-1.099l-18.532-0.236v-6.518c-0.314-59.364-0.55-133.177-6.36-203.456-5.34-64.861-11.15-124.775-17.668-183.119l-1.492-11.857c-1.099-8.481-1.963-15.155-2.277-21.437-1.649-28.426-31.802-47.429-59.050-47.429-2.984 0-5.889 0.157-8.638 0.707-3.691 0.628-7.538 0.785-11.465 0.785s-8.009-0.157-12.093-0.393c-6.596-0.393-25.363-1.099-25.363-1.099h-105.851c-14.841 0.55-23.793 3.612-29.604 10.208-4.319 4.947-6.203 11.15-5.34 17.511 1.963 14.684 17.668 26.149 36.357 26.698 35.886 0.157 71.457 1.728 106.872 3.298l47.978 2.042 0.707 5.497c7.46 56.223 13.663 112.839 18.532 168.199 1.335 15.783 2.434 31.724 3.612 47.664l1.728 23.714c3.455 47.193 3.455 95.8 3.377 142.914l0.079 40.047c0 11.465 0.314 23.086 1.649 34.394 1.728 14.448 13.82 25.834 27.562 25.913 0 0 31.567-0.079 42.168-0.236l43.188-0.707-8.716 10.993c-3.455 4.319-6.989 8.638-10.601 12.721-10.836 12.642-22.379 24.971-33.922 37.299l-14.213 15.155c-52.376 56.38-111.661 112.368-192.149 181.234-60.856 51.983-126.974 97.527-207.54 149.981l-3.455 2.277-4.397-1.57c-65.018-42.874-122.105-83.628-174.873-124.775-64.94-50.648-128.858-108.128-184.925-166.314-33.451-34.551-67.060-71.85-100.118-110.798l-9.344-11.072c0 0 63.762 0.864 87.947 1.178 20.024 0 33.059-14.213 33.059-36.357v-38.084c-0.079-50.491-0.157-101.139 2.513-148.961 4.083-73.42 12.328-154.457 25.913-255.125l0.785-5.497 29.211-1.099c39.184-1.57 78.524-3.141 117.786-3.926 18.453-0.864 33.922-12.328 35.807-26.698 0.864-6.36-1.021-12.564-5.34-17.511-5.654-6.36-15.783-10.365-26.541-10.365-1.649 0-3.377 0.079-5.104 0.314h-72.478c-26.227 0-52.454-0.079-78.524-0.314h-0.785z" />
<glyph unicode="&#xe91b;" glyph-name="logo-movistar" data-tags="logo-movistar" horiz-adv-x="1352" d="M254.268 841.387c-62.63-1.025-178.242-32.725-231.041-254.083-23.013-96.449-31.894-196.986-12.207-316.656 18.152-110.379 50.338-205.639 72.011-258.134 7.48-18.094 19.053-36.951 27.995-48.568 25.729-33.387 68.563-31.249 86.569-22.158 19.614 9.916 42.164 33.85 34.001 88.508-3.947 26.41-15.326 65.024-21.734 86.507-19.638 65.9-45.806 145.404-48.084 202.038-3.046 75.753 26.046 85.67 45.38 90.034 32.491 7.34 59.743-29.286 85.631-75.191 30.883-54.783 83.828-151.869 127.003-226.022 38.996-66.938 110.934-138.602 226.473-133.675 117.793 5.002 204.617 51.132 249.351 196.361 33.465 108.653 56.283 189.834 92.989 272.977 42.212 95.623 98.52 146.792 145.946 131.174 44.028-14.505 55.004-58.684 55.54-123.609 0.475-57.434-6.006-120.745-11.037-167.263-1.827-16.881-5.141-50.832-3.777-69.701 2.656-37.051 18.286-74.078 58.939-79.992 43.321-6.315 78.065 29.211 91.941 72.152 5.482 16.944 10.148 42.854 12.67 61.223 12.731 92.81 16.032 155.183 10.294 250.144-6.725 111.054-27.886 212.304-64.823 299.937-35.329 83.806-92.088 137.514-164.878 142.266-80.563 5.239-173.028-49.631-221.527-156.083-44.71-98.137-80.478-198.874-102.175-250.281-22.014-52.145-54.346-84.269-104.075-89.646-60.803-6.565-113.175 38.74-151.55 103.314-33.453 56.309-99.738 163.511-135.214 199.537-33.319 33.825-71.377 76.179-150.612 74.891l74.679-181.372z" />
<glyph unicode="&#xe91c;" glyph-name="money" data-tags="money" horiz-adv-x="987" d="M526.003 289.759c32.686 3.383 56.457 16.549 57.097 45.44 0.731 32.869-26.514 43.52-56.503 48.823-0.091-37.714-0.229-56.594-0.594-94.263zM478.323 603.999c-27.657-2.697-55.909-16.274-56.549-40.503-0.823-27.52 28.069-41.783 55.863-44.891 0.183 34.149 0.32 51.246 0.686 85.394zM477.455 397.005c-114.194 33.326-175.543 60.617-170.651 136.183 5.76 89.691 97.874 158.171 172.709 161.051 0.046 3.566 0.091 5.303 0.183 8.869 0.32 20.48 8.96 28.48 22.263 28.48 13.349-0.046 21.989-8.091 22.354-28.526 0.046-3.566 0.091-5.349 0.137-8.914 44.937-1.783 157.486-55.909 163.063-119.726 2.194-25.189-17.554-43.429-53.303-40.503-34.377 2.743-50.971 52.937-108.48 67.291 0.457-37.669 0.594-56.549 0.777-94.263 119.726-31.314 180.069-73.143 176.183-149.486-4.434-87.726-94.446-151.497-177.783-157.897-0.229-14.491-0.366-21.714-0.594-36.251-0.366-20.48-9.006-28.48-22.354-28.526-13.303 0-21.943 8-22.263 28.48-0.274 14.537-0.366 21.76-0.549 36.206-106.24 3.611-174.537 87.177-177.6 132.617-1.92 28.434 20.617 47.406 53.303 45.806 44.983-2.149 55.771-69.806 123.2-86.857-0.411 42.377-0.549 63.589-0.594 105.966zM819.65 119.793c-72.96-80.32-182.72-121.006-326.171-121.006-102.72 0-188.023 20.983-255.040 62.309 0 0-94.811 70.537-130.286 149.166-30.217 65.28-45.531 144.777-45.531 237.76 0 141.303 35.2 251.749 104.686 328.183 72.96 80.32 182.72 121.051 326.171 121.051s253.211-40.731 326.171-121.051c69.486-76.434 104.686-186.88 104.686-328.183 0-141.349-35.2-251.794-104.686-328.229zM859.421 812.365c-83.566 92.023-206.674 138.651-365.943 138.651-159.223 0-282.423-46.629-365.989-138.651-78.72-86.629-118.629-209.234-118.629-364.343 0-117.349 22.994-215.863 68.206-294.491 0.594-1.189 1.234-2.331 2.011-3.474 12.297-20.891 26.103-40.503 41.6-58.469 1.006-1.554 2.194-3.063 3.52-4.434 0.274-0.274 0.64-0.503 0.96-0.731 0.777-0.914 1.554-1.874 2.331-2.789 83.566-92.023 206.766-138.651 365.989-138.651 159.269 0 282.377 46.629 365.943 138.651 78.766 86.629 118.72 209.234 118.72 364.389 0 155.109-39.954 277.714-118.72 364.343z" />
<glyph unicode="&#xe91d;" glyph-name="phone" data-tags="phone" d="M125.896 856.078c24.29 24.29 56.712 49.154 99.038 49.154 35.966 0 78.918-17.827 130.105-69.014 43.003-42.951 66.825-82.879 70.89-118.637 4.066-35.549-10.998-69.848-45.974-104.772l-36.175-36.331c-10.269-10.164-10.738-26.584-1.251-37.374 36.383-41.231 77.771-84.912 126.821-133.753 48.685-48.946 92.47-90.437 133.753-126.769 10.79-9.539 27.209-8.966 37.426 1.199l36.175 36.227c69.587 69.587 136.464 62.081 223.461-24.916 42.378-42.326 65.469-82.827 68.753-120.253 3.128-37.217-12.771-72.871-48.789-108.89-118.22-117.594-239.411-115.874-573.951 220.333-161.171 160.285-249.993 276.472-279.652 365.45-26.375 79.126-9.122 139.539 59.371 208.345zM307.396 243.606c209.022-210.065 351.637-307.956 469.909-307.956 65.521 0 123.589 30.024 181.5 87.622 47.486 47.486 69.222 98.673 64.583 152.206-4.326 50.666-32.787 102.53-84.547 154.343-108.056 108.056-209.231 116.396-300.815 24.864l-17.931-17.931c-34.82 31.379-71.672 66.616-112.017 107.274l-0.052 0.052c-40.606 40.449-75.946 77.302-107.326 112.069l17.931 17.931c46.913 46.913 67.659 97.266 61.716 149.756-5.682 48.998-33.986 98.412-86.528 151.059-134.952 134.9-241.183 85.277-306.653 19.86-83.192-83.609-105.554-165.133-72.558-264.275 32.839-98.725 123.224-218.144 292.787-386.873z" />
<glyph unicode="&#xe91e;" glyph-name="search-nav" data-tags="search-nav" d="M74.127 79.971c-0.986 3.154-0.654 3.957-0.080 4.53l383.96 385.772c10.984 11.036 13.774 27.815 6.953 41.811-48.765 100.053-29.399 220.145 48.288 299.583 92.334 92.72 239.639 100.746 341.654 18.404 102.112-82.42 126.102-228.947 55.621-339.93-70.419-110.887-212.54-150.698-329.829-92.45-18.089 8.983-40.037 1.604-49.022-16.482s-1.604-40.031 16.485-49.014c150.849-74.914 333.648-23.708 424.114 118.747 90.404 142.358 59.643 330.241-71.424 436.033-131.164 105.87-320.676 95.544-439.663-23.944-93.341-95.443-120.902-236.267-72.6-358.833l-366.301-368.031c-14.241-14.219-22.283-33.642-22.283-53.89s8.043-39.672 22.364-53.971l73.272-73.619c31.367-31.515 88.308-19.868 118.474 10.441l294.009 295.090c14.255 14.307 14.21 37.459-0.099 51.711s-37.465 14.208-51.72-0.099l-294.023-295.103c-2.528-2.54-8.791-5.733-14.735-6.949-1.879-0.384-26.351 23.014-73.414 70.194z" />
<glyph unicode="&#xe91f;" glyph-name="search" data-tags="search" horiz-adv-x="973" d="M396.625 266.031c-87.202 0-150.474 21.881-193.644 66.991v0.054c-43.924 45.864-65.374 112.424-65.374 203.291s21.396 157.211 65.213 202.752c43.116 44.84 106.604 66.668 193.805 66.668 87.256 0 150.69-21.827 193.913-66.668 43.17-45.002 65.213-113.233 65.213-202.752 0-89.573-22.043-158.019-65.374-203.291-43.17-45.11-106.496-67.045-193.752-67.045zM964.46 54.494l-238.754 238.754c41.068 64.728 62.141 146.055 62.141 243.119 0 124.874-34.331 223.879-102.131 294.373-68.446 71.141-165.78 107.197-289.091 107.197-123.365 0-220.591-36.056-288.984-107.197-67.746-70.387-102.131-169.391-102.131-294.373 0-124.874 34.331-223.987 101.969-294.643 68.339-71.572 165.726-107.843 289.145-107.843 95.124 0 174.457 21.773 237.299 64.296l237.137-237.083c4.042-4.042 10.617-4.042 14.659 0l78.74 78.686c4.042 4.042 4.042 10.671 0 14.713z" />
<glyph unicode="&#xe920;" glyph-name="send-comic" data-tags="send-comic" horiz-adv-x="977" d="M385.983-63.999c-5.005 0-10.010 1.237-14.544 3.827-9.068 5.123-14.72 14.662-14.897 25.084-1.766 98.568-2.532 147.853-3.651 246.421-0.118 8.479 3.474 16.605 9.774 22.316 28.852 25.731 54.23 47.871 77.253 67.95 108.873 94.977 163.515 142.671 278.335 312.251 9.127 13.366 27.439 16.958 40.864 7.89 13.484-9.186 17.017-27.439 7.89-40.923-119.118-175.88-175.704-225.282-288.404-323.615-20.138-17.547-42.159-36.742-66.713-58.588 0.883-72.072 1.531-117.941 2.591-181.886 39.922 25.084 74.78 50.933 133.839 95.919 9.068 6.771 21.198 8.008 31.207 2.767l12.071-6.183c76.9-39.157 120.296-61.296 183.064-89.736 132.249 335.509 191.308 526.523 92.209 859.029l-19.372-17.076c-195.076-172.23-434.196-383.322-732.963-485.541 40.982-21.256 77.135-44.633 119.059-71.777 18.371-11.894 37.92-24.554 59.471-38.097 13.837-8.597 18.018-26.791 9.362-40.57-8.597-13.778-26.791-17.959-40.57-9.303-21.845 13.661-41.63 26.497-60.295 38.568-61.767 39.981-110.521 71.6-180.944 99.098-11.835 4.652-19.372 16.31-18.607 29.029 0.648 12.719 9.421 23.494 21.727 26.791 320.966 86.498 578.162 313.488 784.838 495.963l53.524 47.164c7.419 6.477 17.723 8.773 27.145 6.183 9.539-2.591 17.135-9.833 20.197-19.254 126.596-387.738 55.702-599.477-91.385-970.61-2.944-7.36-8.832-13.307-16.251-16.369-7.419-2.944-15.721-2.826-23.082 0.353-79.196 35.211-126.302 59.117-209.443 101.513-71.188-53.936-107.401-79.785-168.697-114.761-4.534-2.591-9.598-3.827-14.603-3.827z" />
<glyph unicode="&#xe921;" glyph-name="shopping-car" data-tags="shopping-car" horiz-adv-x="1114" d="M1041.783 597.756c-24.269-72.489-48.427-145.033-73.081-217.411-17.115-50.393-41.934-68.225-93.938-68.28-163.167-0.055-326.279 0-489.446 0h-31.093c-26.8 110.754-53.27 220.124-80.896 334.146h100.487c35.385 0 70.715 0.055 106.1 0.055 175.824 0 351.703 0 527.528-0.055 44.85 0 48.702-5.538 34.339-48.455v0zM445.962 71.839c21.462 0 38.907-17.499 38.907-39.152 0-21.542-17.445-39.152-38.907-39.152-21.407 0-38.907 17.61-38.907 39.152 0 21.652 17.5 39.152 38.907 39.152v0zM871.902 71.839c21.462 0 38.907-17.499 38.907-39.152 0-21.542-17.445-39.152-38.907-39.152s-38.852 17.61-38.852 39.152c0 21.652 17.39 39.152 38.852 39.152v0zM1013.332 709.009c-180.007 0.111-360.013 0.055-540.020 0.055h-213.41c-5.063 19.991-9.74 38.376-14.363 56.762-14.308 57.371-46.611 102.558-95.424 134.29-30.982 20.157-64.772 35.829-97.35 53.494-18.49 10.023-35.275 9.636-45.456-11.186-10.016-20.379-0.77-34.278 17.885-44.025 27.185-14.287 54.206-28.685 81.006-43.748 39.732-22.262 66.533-55.543 78.254-99.9 21.792-81.903 43.97-163.75 63.781-246.151 21.572-89.6 40.448-179.865 60.919-269.742 15.023-65.788 51.179-103.223 108.686-114.132-39.237-12.238-67.963-48.621-67.963-92.037 0-53.328 43.089-96.688 96.084-96.688s96.139 43.36 96.139 96.688c0 39.373-23.553 73.153-57.122 88.271 115.95-0.055 231.956-0.055 347.906-0.055-33.569-15.118-57.067-48.898-57.067-88.216 0-53.328 43.089-96.688 96.084-96.688s96.139 43.36 96.139 96.688c0 40.868-25.369 75.701-61.029 89.822 10.401 7.974 25.039 19.382 24.269 28.132-0.991 11.629-14.748 23.701-25.644 32.285-5.228 4.153-16.344 0.886-24.819 0.886-144.016 0.055-287.977-0.111-431.994 0.166-44.355 0.055-67.633 19.327-75.833 64.957h36.926c155.628 0 311.256-0.111 466.883 0.111 72.861 0.055 124.755 37.324 148.529 106.712 26.195 76.31 52.279 152.619 77.594 229.206 24.929 75.202-10.566 124.045-89.591 124.045v0z" />
<glyph unicode="&#xe922;" glyph-name="star-comic" data-tags="star-comic" d="M186.786 267.846c-14.545-77.415-19.611-133.305-21.581-211.899-0.43-17.445-0.056-41.872 2.345-57.43 2.373-15.336 7.758-29.006 15.725-39.277 2.096-2.942 4.552-5.538 7.286-7.841 1.194-0.999 2.179-1.735 3.178-2.443 0.999-0.722 1.999-1.43 3.026-2.068 3.359-2.026 6.606-3.553 10.076-4.622 12.324-4.33 27.119-5.177 42.566-2.665 15.683 2.54 39.235 9.729 55.848 15.53 65.646 22.928 114.083 42.899 172.109 72.835 20.776 10.673 45.925 11.381 67.617 0.819 58.762-30.408 107.504-50.504 173.761-73.654 16.613-5.801 40.165-12.99 55.848-15.53 15.447-2.512 30.242-1.665 42.566 2.665 3.47 1.069 6.717 2.595 9.771 4.441 1.332 0.819 2.332 1.527 3.331 2.248 0.999 0.708 1.985 1.443 2.915 2.221 2.998 2.526 5.454 5.121 7.55 8.064 7.98 10.27 13.351 23.941 15.725 39.277 2.401 15.558 2.776 39.984 2.345 57.43-1.957 77.734-6.981 133.665-21.179 209.818-3.831 22.858 3.275 46.827 20.11 63.995 46.896 45.605 81.065 85.201 123.492 140.133 10.7 13.865 24.884 33.822 32.171 47.812 7.189 13.782 10.95 27.993 10.589 40.928 0.042 3.608-0.402 7.134-1.249 10.589-0.361 1.499-0.722 2.665-1.11 3.831-0.375 1.166-0.777 2.304-1.235 3.428-1.513 3.608-3.234 6.731-5.399 9.618-7.397 10.673-18.875 19.971-32.865 26.938-14.184 7.078-37.514 14.975-54.39 19.958-62.107 18.32-110.627 30.047-169.236 39.304-23.15 3.456-43.87 17.543-55.168 38.721-32.615 67.062-61.344 114.43-104.784 176.842-9.993 14.364-24.773 33.892-35.96 45.092-11.006 11.020-23.483 18.958-36.015 22.636-3.442 1.152-6.967 1.804-10.548 2.082-1.554 0.125-2.79 0.139-4.025 0.125-1.235 0.014-2.457 0-3.678-0.097-3.914-0.305-7.439-0.958-10.881-2.11-12.546-3.678-25.009-11.616-36.029-22.636-11.172-11.2-25.967-30.727-35.974-45.092-43.426-62.426-72.211-109.808-104.839-176.897-9.882-20.318-29.492-34.322-52.683-38.305-60.025-9.34-108.434-21.040-171.637-39.665-16.876-4.996-40.193-12.893-54.39-19.971-13.99-6.967-25.453-16.266-32.865-26.938-2.165-2.887-3.886-6.009-5.26-9.299-0.597-1.43-0.999-2.581-1.374-3.747-0.389-1.166-0.749-2.318-1.041-3.497-0.916-3.789-1.374-7.314-1.318-10.909-0.347-12.949 3.414-27.161 10.589-40.942 7.286-13.99 21.456-33.947 32.171-47.812 42.052-54.46 76-93.834 122.285-138.939 16.668-16.266 25.148-39.388 21.72-63.092z" />
<glyph unicode="&#xe923;" glyph-name="star-fill" data-tags="star-fill" horiz-adv-x="1071" d="M535.499 124.86l-318.958-167.686 60.916 355.165-258.042 251.529 356.606 51.818 159.479 323.14 159.479-323.14 356.606-51.818-258.042-251.529 60.916-355.165z" />
<glyph unicode="&#xe924;" glyph-name="star" data-tags="star" horiz-adv-x="1071" d="M535.5 176.776l257.802-135.534-49.236 287.066 208.566 203.302-288.231 41.882-128.901 261.182-128.901-261.182-288.231-41.882 208.566-203.302-49.236-287.066 257.802 135.534zM215.88-43.844l61.042 355.902-258.578 252.051 357.346 51.925 159.81 323.811 159.81-323.811 357.346-51.925-258.578-252.051 61.042-355.902-319.62 168.034-319.62-168.034z" />
<glyph unicode="&#xe925;" glyph-name="success" data-tags="success" horiz-adv-x="1067" d="M923.951 823.275c-10.453 12.587-23.2 23.413-35.733 30.027-12.533 6.667-23.413 8.32-31.253 4.427-96.853-47.947-226.667-340.373-289.227-482.187-70.027 54.187-106.080 82.4-175.36 135.040-11.147 8.427-25.12 11.893-39.2 9.867-14.133-2.080-26.987-9.44-35.947-20.533-8.96-11.147-13.067-24.693-11.36-38.4s8.96-25.867 20.32-34.347c92.747-69.653 141.067-108.267 230.507-179.147 9.067-7.093 20.32-10.933 31.68-10.72 4.64 0.053 9.333 0.8 13.707 2.133 15.84 4.747 29.12 16.96 35.627 32.587 1.813 4.427 176.747 440.96 293.973 492.373 8.693 3.733 12.64 11.733 11.093 22.72-1.6 10.933-8.48 23.68-18.827 36.16zM941.449 500.283c4.853 72.107 4.64 107.68-2.187 177.707-24.587-26.613-51.573-67.573-81.013-117.12-0.96-25.013-1.653-37.547-3.573-62.773-0.693-8.64 1.653-17.44 6.773-24.96 39.68-58.88 58.88-87.147 92.16-139.147-64.587-39.52-97.28-61.12-160.747-104.427-8.107-5.547-14.56-13.227-18.453-21.973-30.56-68.587-46.507-103.68-76.693-174.293-58.133 15.040-88.64 25.227-151.787 48.373-3.947 1.44-8.16 2.187-12.427 2.187-4.213 0-8.427-0.747-12.427-2.187-63.147-23.147-93.76-33.333-151.84-48.373-30.187 70.613-46.080 105.707-76.64 174.293-3.84 8.747-10.347 16.427-18.453 21.973-63.467 43.307-96.053 64.907-160.693 104.427 33.28 52 52.427 80.267 92.16 139.147 5.067 7.52 7.467 16.32 6.72 24.907-5.173 67.893-6.080 101.547-3.787 168.107 71.2 17.333 106.56 25.28 176.48 38.72 8.853 1.76 17.44 6.347 24.107 13.173 52.64 53.92 78.187 81.173 124.373 132.907 46.187-51.733 71.68-78.987 124.373-132.907 1.547-1.547 3.413-2.56 5.12-3.84 13.653 24.533 27.147 47.84 40.373 69.707-1.92 0.48-2.88 0.693-4.853 1.12-60.853 63.68-89.973 96.053-140.587 156.747-13.92 16.747-34.88 16.747-48.8 0-50.613-60.693-79.787-93.067-140.587-156.747-77.44-18.080-116.747-29.227-196.373-54.24-21.973-6.933-41.813-28.373-43.787-48.16-7.467-71.787-7.733-108.267-2.827-182.347-47.36-65.547-69.92-96.427-107.52-151.040-10.4-15.040-1.28-36.213 19.68-49.013 75.947-46.507 114.133-72.48 187.733-124.64 38.613-77.707 59.093-117.813 97.973-199.2 10.72-22.4 32.053-38.027 48.587-34.133 60.373 14.4 92.907 25.76 161.493 52.907 68.587-27.147 101.12-38.507 161.493-52.907 3.413-0.8 7.093-0.747 10.667 0 14.133 2.773 29.493 16.32 37.973 34.133 38.88 81.387 59.253 121.493 97.867 199.147 73.6 52.213 111.84 78.187 187.733 124.693 21.013 12.8 30.133 33.973 19.733 49.013-37.547 54.613-60.16 85.493-107.52 151.040z" />
<glyph unicode="&#xe926;" glyph-name="total" data-tags="total" horiz-adv-x="904" d="M805.013 788.32c-282.019-12.035-423.83-12.035-706.027 0-54.269 2.314-98.751 43.356-98.751 90.57s44.483 83.318 98.751 81.004c282.197-12.035 423.83-12.035 706.027 0 54.447 2.314 98.751-33.79 98.751-81.004s-44.483-88.256-98.751-90.57zM805.013 366.673c-282.019-12.035-423.83-12.035-706.027 0-54.269 2.469-98.751 43.356-98.751 90.57 0 47.368 44.483 83.318 98.751 81.004 282.197-12.035 424.008-12.035 706.027 0 54.269 2.314 98.751-33.636 98.751-81.004 0-47.214-44.483-88.101-98.751-90.57zM805.013-54.974c-282.197-12.035-423.83-12.035-706.027 0-54.269 2.314-98.751 43.356-98.751 90.57s44.483 83.318 98.751 81.004c282.197-12.035 424.008-12.035 706.027 0 54.269 2.314 98.751-33.79 98.751-81.004s-44.305-88.256-98.751-90.57z" />
<glyph unicode="&#xe927;" glyph-name="twitter" data-tags="twitter" d="M512 956.436c-280.351 0-508.436-228.086-508.436-508.436 0-280.33 228.086-508.436 508.436-508.436 280.33 0 508.436 228.106 508.436 508.436 0 280.351-228.065 508.436-508.436 508.436zM738.816 564.367c0.225-5.038 0.348-10.117 0.348-15.196 0-154.644-117.678-332.902-332.984-332.902-66.089 0-127.611 19.313-179.384 52.531 9.155-1.085 18.473-1.638 27.914-1.638 54.845 0 105.288 18.719 145.347 50.094-51.2 0.942-94.433 34.775-109.322 81.285 7.127-1.352 14.479-2.109 21.996-2.109 10.67 0 21.033 1.393 30.843 4.076-53.535 10.732-93.86 58.020-93.86 114.749 0 0.492 0 1.004 0.020 1.475 15.77-8.745 33.812-14.029 52.982-14.623-31.375 20.951-52.040 56.791-52.040 97.382 0 21.463 5.755 41.574 15.831 58.86 57.692-70.82 143.954-117.391 241.193-122.307-2.007 8.581-3.011 17.49-3.011 26.685 0 64.614 52.388 117.023 117.002 117.023 33.669 0 64.041-14.213 85.422-36.946 26.685 5.243 51.671 14.95 74.342 28.406-8.806-27.341-27.3-50.258-51.528-64.758 23.695 2.826 46.305 9.093 67.215 18.412-15.606-23.429-35.451-44.052-58.327-60.498z" />
<glyph unicode="&#xe928;" glyph-name="user-comic" data-tags="user-comic" horiz-adv-x="935" d="M467.45 4.404v0c-305.050 0-387.584 13.517-387.584 108.339 0 194.765 84.992 291.738 192.205 336.794 37.786-28.57 86.016-46.592 143.462-53.248 11.059-1.331 22.323-2.15 33.997-2.56 5.939-0.205 11.878-0.307 17.92-0.307 6.144 0 12.083 0.102 18.022 0.307 11.571 0.41 22.938 1.229 33.997 2.56 57.446 6.656 105.574 24.678 143.462 53.248 107.213-45.056 192.205-142.029 192.205-336.794 0-94.822-82.637-108.339-387.686-108.339v0zM467.45 891.598v0c149.299 0 224.87-72.294 224.87-214.938 0-64-15.258-113.562-45.466-149.094-8.704-10.138-18.637-19.046-29.696-26.829-14.336-10.138-30.72-18.33-49.254-24.576-17.408-5.734-36.966-9.728-58.163-12.083-10.957-1.024-22.426-1.741-34.304-2.048-2.662 0-5.222-0.205-7.987-0.205-2.662 0-5.222 0.205-7.885 0.205-11.878 0.307-23.347 1.024-34.304 2.048-21.197 2.355-40.755 6.349-58.163 12.083-18.534 6.246-34.918 14.438-49.357 24.576-10.957 7.782-20.89 16.691-29.594 26.829-30.208 35.533-45.466 85.094-45.466 149.094 0 142.643 75.571 214.938 224.768 214.938v0zM712.698 501.351c31.437 45.466 48.128 104.448 48.128 175.309 0 180.019-106.906 283.341-293.376 283.341-186.368 0-293.274-103.322-293.274-283.341 0-70.861 16.691-129.843 48.128-175.309-136.294-67.994-210.842-201.523-210.842-388.608 0-83.354 45.67-135.066 139.878-157.901 77.005-18.842 182.477-18.842 316.109-18.842s239.206 0 316.211 18.842c94.106 22.835 139.878 74.547 139.878 157.901 0 187.085-74.547 320.614-210.842 388.608v0z" />
<glyph unicode="&#xe929;" glyph-name="user" data-tags="user" horiz-adv-x="990" d="M494.877 891.733c-122.253 0-221.743-99.458-221.743-221.673 0-122.462 99.49-222.061 221.743-222.061 122.395 0 221.99 99.599 221.99 222.061 0 122.215-99.596 221.673-221.99 221.673zM494.878 379.733c-159.9 0-290.011 130.255-290.011 290.326 0 159.861 130.111 289.941 290.011 289.941 160.040 0 290.256-130.080 290.256-289.941 0-160.071-130.216-290.326-290.256-290.326zM954.895-64h-919.789c-19.357 0-35.039 14.925-35.039 33.348 0 144.652 68.362 279.209 187.549 369.025 15.122 11.46 37.209 9.028 49.25-5.43 12.006-14.425 9.451-35.413-5.741-46.84-93.075-70.16-150.060-172.070-159.581-283.407h846.912c-9.521 111.504-66.472 213.38-159.581 283.373-15.157 11.427-17.782 32.382-5.776 46.84s34.023 16.924 49.215 5.497c119.257-89.616 187.619-224.14 187.619-369.058 0-18.423-15.682-33.348-35.039-33.348z" />
<glyph unicode="&#xe92a;" glyph-name="x" data-tags="x" d="M512 511.813l-426.964 425.957c-17.663 17.622-46.267 17.588-63.889-0.075s-17.588-46.267 0.075-63.889l426.813-425.806-426.813-425.806c-17.663-17.622-17.697-46.226-0.075-63.889s46.226-17.697 63.889-0.075l426.964 425.957 426.964-425.957c17.663-17.622 46.267-17.588 63.889 0.075s17.588 46.267-0.075 63.889l-426.813 425.806 426.813 425.806c17.663 17.622 17.697 46.226 0.075 63.889s-46.226 17.697-63.889 0.075l-426.964-425.957z" />
<glyph unicode="&#xe92b;" glyph-name="youtube" data-tags="youtube" d="M418.941 336.071c76.633 39.737 152.597 79.109 229.261 118.868-76.894 40.124-152.837 79.726-229.261 119.609 0-79.768 0-158.72 0-238.477zM512 958.694c-282.039 0-510.694-228.645-510.694-510.694s228.655-510.694 510.694-510.694c282.039 0 510.694 228.645 510.694 510.694s-228.655 510.694-510.694 510.694zM830.063 290.414c-8.104-35.156-36.861-61.087-71.47-64.947-81.969-9.167-164.925-9.215-247.546-9.167-82.621-0.048-165.596 0-247.584 9.167-34.61 3.86-63.347 29.791-71.432 64.947-11.524 50.080-11.524 104.729-11.524 156.275s0.134 106.214 11.658 156.275c8.085 35.156 36.822 61.096 71.432 64.966 81.988 9.158 164.964 9.206 247.584 9.158 82.602 0.048 165.577 0 247.536-9.158 34.629-3.87 63.386-29.801 71.47-64.966 11.524-50.071 11.428-104.729 11.428-156.275s-0.029-106.205-11.553-156.275z" />
<glyph unicode="&#xe92c;" glyph-name="twitter-comic" data-tags="twitter-comic" horiz-adv-x="1317" d="M445.586-64c-127.694 0-254.199 35.031-365.798 101.288l-79.573 47.226 92.722-1.549c3.003-0.149 7.839-0.394 15.454-0.394 35.296 0 147.736 5.631 263.029 70.112-86.667 25.541-158.281 91.943-187.772 178.874l-14.608 43.045 39.788-10.252c-63.772 48.553-105.494 123.191-110.059 206.381l-2.185 39.824 36.886-15.955c6.723-2.926 13.566-5.508 20.514-7.742-52.386 72.671-84.088 184.968-17.982 304.249l18.206 32.87 23.142-29.672c110.878-142.072 275.284-228.705 454.572-240.602-1.092 11.040-1.86 21.192-1.86 24.363 0 131.87 101.252 268.262 270.671 268.262 71.116 0 139.577-28.001 190.006-77.292 67.593 15.733 132.186 54.796 132.881 55.217l58.588 35.747-22.127-64.581c-10.618-30.927-26.789-59.421-47.527-84.3 11.312 3.665 22.424 7.868 33.86 12.807l70.371 34.075-29.568-62.936c-24.408-51.996-65.111-94.896-115.663-122.33 11.112-172.111-60.302-364.137-188.764-505.153-95.351-104.704-265.164-229.834-532.682-231.532l-4.523-0.050zM184.861 39.032c82.699-35.376 171.399-53.84 260.698-53.84l4.242 0.023c249.436 1.572 407.516 117.954 496.17 215.306 123.626 135.73 190.651 321.313 174.873 484.351l-1.663 17.305 15.874 7.325c25.176 11.629 47.724 27.779 66.651 47.421-21.181-5.309-43.779-9.268-69.827-12.39l-19.024-2.287-14.832 37.269 17.264 13.178c24.184 14.039 45.269 32.327 62.309 53.74-26.963-11.384-58.789-22.519-90.611-28.395l-13.593-2.509-9.302 10.129c-41.822 45.482-101.329 71.539-163.341 71.539-138.362 0-221.061-111.39-221.061-219.092 0-6.514 3.273-36.163 4.439-43.783l11.262-31.738-35.817 0.761c-191.99 4.104-370.607 87.494-495.997 230.205-49.611-129.116 33.686-232.27 73.471-263.17l58.168-45.21-73.895 1.278c-23.142 0.394-45.79 3.515-67.743 9.318 19.522-86.289 88.33-155.617 177.725-174.644l97.855-20.847-96.342-26.872c-16.793-4.671-35.844-7.031-56.628-7.031-9.722 0-19.024 0.516-27.607 1.304 38.746-67.607 110.901-113.039 190.724-116.898l69.75-3.393-56.249-40.972c-96.416-70.284-196.429-97.351-267.943-107.381z" />
<glyph unicode="&#xe92d;" glyph-name="tel-comic" data-tags="tel-comic" horiz-adv-x="1126" d="M675.731 736.556c-6.022 6.099-8.19 12.008 0.723 21.034 8.939 9.053 14.774 6.858 20.795 0.759 5.995-6.072 8.163-12.008-0.749-21.034-8.939-9.053-14.747-6.858-20.769-0.759zM714.11 775.426c-16.593 16.806-37.469 16.507-54.518-0.732-17.022-17.266-17.316-38.409-0.749-55.215 16.593-16.806 37.496-16.507 54.518 0.732 17.048 17.266 17.343 38.409 0.749 55.215zM814.931 745.398c-6.022 6.099-8.19 12.008 0.749 21.034 8.912 9.053 14.747 6.858 20.769 0.759 6.022-6.072 8.19-11.981-0.749-21.034-8.912-9.053-14.747-6.858-20.769-0.759zM853.337 784.268c-16.62 16.806-37.496 16.507-54.544-0.732-17.022-17.266-17.316-38.409-0.723-55.215 16.567-16.806 37.496-16.507 54.518 0.732 17.048 17.266 17.316 38.409 0.749 55.215zM962.445 745.398c-6.022 6.099-8.19 12.008 0.723 21.034 8.939 9.053 14.774 6.858 20.795 0.759 5.995-6.072 8.163-11.981-0.749-21.034-8.939-9.053-14.747-6.858-20.769-0.759zM1000.824 784.268c-16.593 16.806-37.469 16.507-54.518-0.732-17.022-17.266-17.316-38.409-0.723-55.215 16.567-16.806 37.469-16.507 54.491 0.732 17.048 17.266 17.343 38.409 0.749 55.215zM1086.149 766.113c0.294-5.936 0.455-12.008 0.482-18.269v-0.596c0-6.126-0.187-11.981-0.455-17.727-2.623-59.064-18.681-76.655-50.102-104.222-32.545-28.57-136.628-43.315-206.348-44.914-4.282-0.081-8.591-0.163-13.034-0.163h-0.401c-4.55 0-9.019 0.081-13.435 0.217-25.693 0.705-75.126 3.226-96.001 7.671-3.319 0.705-6.691-0.325-9.474-2.846-0.214-0.217-0.428-0.407-0.642-0.651-8.404-7.834-18.36-14.42-29.627-19.57-9.314-4.283-15.496-6.289-25.452-8.213 1.392 13.553 2.864 21.983 6.022 34.777 2.141 8.755-0.803 18.324-6.905 22.335-44.776 29.383-65.678 55.919-65.678 133.307 0 68.768 16.058 100.183 50.557 130.461 34.525 30.277 114.441 45.023 191.039 45.023s184.883-14.746 219.382-45.023c31.233-27.404 47.291-53.182 50.075-111.595zM828.254 539.535c75.741 1.681 189.834 18.459 227.009 51.067 39.45 34.668 60.138 64.512 63.002 137.020l-0.054 36.945c-3.051 71.966-23.713 109.67-62.948 144.149-39.316 34.506-157.638 51.284-240.23 51.284-82.566 0-167.005-16.779-206.321-51.284-42.661-37.433-63.376-81.182-63.376-163.15 0-86.576 23.311-124.389 71.191-161.253-1.633-8.322-2.73-16.264-3.827-26.401-0.214-2.304-0.776-8.078-0.642-12.686 0.134-5.53 1.178-10.734 2.998-15.152 0.642-1.708 1.472-3.307 2.409-4.771 0.321-0.461 0.616-0.949 0.937-1.382 0.401-0.542 0.776-1.003 1.071-1.355 1.097-1.301 2.248-2.385 3.479-3.28 3.265-2.494 7.092-3.876 11.027-4.093h1.124c3.238 0 6.744 0.623 8.216 0.894 11.776 2.331 19.457 4.798 30.484 9.867 11.99 5.502 22.91 12.442 32.518 20.682 21.304-4.147 69.398-6.505 94.85-7.102h27.085zM116.65 689.672c19.761 19.732 46.081 39.929 80.441 39.929 29.155 0 64.065-14.481 105.619-56.061 34.91-34.89 54.206-67.324 57.549-96.371 3.301-28.835-8.929-56.739-37.322-85.108l-29.367-29.513c-8.336-8.257-8.717-21.595-1.016-30.36 29.494-33.451 63.134-68.976 102.953-108.651 39.522-39.76 75.025-73.422 108.538-102.977 8.802-7.749 22.089-7.283 30.382 0.974l29.409 29.428c56.491 56.527 110.781 50.43 181.363-20.24 34.445-34.382 53.148-67.282 55.814-97.684 2.581-30.233-10.325-59.195-39.607-88.453-95.971-95.525-194.354-94.17-465.89 178.982-130.839 130.245-202.944 224.584-227.063 296.863-21.369 64.276-7.363 113.351 48.197 169.243zM261.361 189.844c172.436-173.139 290.046-253.843 387.659-253.843 54.053 0 101.957 24.753 149.688 72.238 39.217 39.149 57.149 81.348 53.322 125.482-3.612 41.77-27.091 84.528-69.749 127.244-89.142 89.083-172.651 95.959-248.162 20.498l-14.793-14.783c-28.725 25.87-59.127 54.92-92.41 88.439-0.043 0.043-0.086 0.043-0.086 0.043-33.498 33.347-62.653 63.729-88.54 92.392l14.836 14.783c38.701 38.676 55.816 80.188 50.871 123.462-4.644 40.395-27.994 81.133-71.34 124.536-111.331 111.215-199.011 70.347-252.978 16.373-68.631-68.929-87.121-136.139-59.901-217.874 27.134-81.391 101.656-179.843 241.583-318.99z" />
<glyph unicode="&#xe92e;" glyph-name="calendar-comic" data-tags="calendar-comic" d="M199.752 883.556c1.817 8.523 2.946 17.047 6.518 24.88 5.703 12.284 20.681 20.807 40.36 18.739 13.913-1.504 24.943-10.591 22.248-23.126-5.264-23.878-9.275-50.576-12.785-79.404-2.005-16.671-19.992-32.652-39.483-32.714-13.286 0-21.183 5.954-25.006 16.608-0.251 0.689-0.313 1.504-0.313 2.319-0.313 9.025-0.313 9.025-9.902 8.022-24.755-2.444-48.946-4.826-72.448-7.959-6.204-0.752-12.722-2.695-18.551-5.703-9.213-4.826-14.602-14.038-15.668-23.878-2.193-20.681-3.071-41.488-4.512-62.483-0.251-3.447 0.94-4.575 3.635-4.074 3.259 0.501 6.518 0.94 9.714 1.441 235.017 37.54 484.824 33.592 716.206 16.984 1.253-0.063 2.507-0.125 3.76-0.376 4.763-0.94 6.079 1.128 5.578 5.64-2.758 20.995-5.202 41.363-8.273 60.979-1.817 11.594-14.414 23.188-26.761 24.88-15.229 2.068-30.646 3.447-46.126 5.014-9.025 0.94-10.090 1.88-11.093 9.526-1.755 13.474-3.698 26.385-5.578 38.543-0.815 5.139 0.313 6.016 6.831 5.703 10.591-0.564 21.12-0.564 31.649-1.943 18.739-2.507 37.289-3.447 55.527-12.284 19.741-9.589 35.284-22.687 46.565-40.486 8.899-13.976 13.788-28.829 15.48-44.685 5.578-51.077 14.79-103.971 15.793-161.942 0.313-15.292-0.063-30.709 0.188-46.189 0.627-36.537 1.316-73.513 1.567-110.489 0-1.943 0.376-4.387-0.313-5.828-0.815-1.504-3.008-3.259-4.199-2.883-11.97 4.011-24.316 8.649-37.164 12.722-5.327 1.755-10.967 2.319-16.545 3.384-3.948 0.815-5.327 3.51-5.264 7.834 0.376 13.036 0.752 26.071 0.689 39.044 0 6.267-1.003 12.534-1.128 18.739-0.689 43.744-1.253 87.050-4.826 127.536-0.877 9.651-0.877 9.651-9.965 10.403-115.816 9.714-255.009 11.531-387.496 9.526v0.063c-133.552-2.068-258.205-12.346-348.076-26.197-4.011-0.564-4.262-3.134-4.512-6.956-2.256-39.232-2.444-79.906-2.632-120.705-0.501-114.939-0.877-231.758 5.828-341.119 0.94-13.913 5.327-25.758 16.984-33.028 5.766-3.51 12.472-5.828 18.676-6.706 104.159-14.602 233.325-24.692 367.692-25.507 2.256 0 4.575 0.313 6.643-0.251 1.567-0.376 3.76-1.629 4.074-2.883 2.382-7.27 4.011-14.665 6.455-21.684 3.51-9.651 7.207-19.052 11.218-28.077 2.319-5.202 0.94-7.082-6.267-7.082-50.45 0.063-100.775 0.627-150.097 1.191-18.112 0.188-35.159-0.125-52.33 2.131-67.748 8.774-132.236 11.97-191.899 20.681-35.096 5.139-60.227 26.635-73.952 63.423-5.578 15.166-7.395 30.897-7.333 46.878 0.125 105.037 0 210.074 0 315.173 0 85.859-0.564 171.719 0.439 257.704 0.376 30.709 12.284 57.783 36.663 77.211 13.788 10.967 29.267 17.736 46.377 19.115 28.829 2.444 58.222 5.014 87.99 7.333 7.834 0.627 7.771 0.689 9.15 7.27zM915.576 257.734c7.834 4.136 15.354 8.774 22.812 12.597 4.199 2.193 4.199 5.014 2.57 8.085-5.515 10.591-10.967 21.622-17.485 31.774-8.711 13.412-19.491 25.006-31.962 34.971-13.036 10.403-27.575 18.363-43.932 24.191-25.57 9.087-53.584 10.027-82.789 6.267-15.856-2.068-31.9-8.335-47.818-14.414-26.134-9.965-50.074-27.074-71.257-47.317-16.357-15.605-30.019-33.404-41.112-52.644-9.213-16.106-16.169-32.088-21.058-48.884-7.897-26.949-9.526-52.894-5.452-77.838 6.33-38.856 24.818-68.437 52.644-91.5 19.491-16.169 42.428-26.949 67.497-32.526 19.052-4.199 38.856-6.455 60.227-3.886 0-0.439-0.063-0.877-0.063-1.253 14.101 1.943 28.202 3.008 41.99 6.33 17.423 4.199 34.406 10.466 50.513 19.177 30.396 16.483 54.336 39.608 72.448 68.75 4.011 6.518 7.395 13.474 10.654 20.431 8.837 18.989 23.251 23 34.72 16.671 4.011-2.256 6.33-6.518 6.643-12.033 0.501-7.395-0.125-14.728-3.322-22.311-21.246-50.826-57.657-88.805-107.669-111.304-15.981-7.207-33.090-12.91-50.2-16.483-30.897-6.455-61.731-8.022-92.189-5.327-41.739 3.698-77.712 12.472-110.803 30.96-25.507 14.164-47.505 32.464-63.925 57.407-8.711 13.161-15.73 27.575-21.12 43.431-7.521 22.186-10.403 45.938-9.714 71.257 0.439 16.169 1.567 32.84 7.145 49.322 5.515 15.981 9.902 32.652 17.047 49.072 9.651 22.311 23.502 42.992 39.42 62.358 21.684 26.385 47.442 48.006 76.521 65.366 20.117 12.033 41.426 20.869 62.107 27.826 9.777 3.259 19.867 5.014 29.769 6.643 13.224 2.193 26.385 3.823 39.295 5.139 6.204 0.627 12.472 0 18.613-0.188 25.695-1.003 49.009-7.395 70.38-17.799 36.976-18.049 63.549-44.935 83.102-78.527 7.458-12.848 12.722-27.701 18.488-41.488 1.504-3.698 2.758-4.638 5.703-2.632 6.267 4.45 12.409 8.335 18.175 12.158 0.815 0.501 1.943 0.376 2.57-0.313 0.376-0.501 0.313-2.632 0.063-3.823-5.327-24.63-11.406-49.573-18.425-74.453-1.692-6.204-3.51-12.472-5.264-18.739-1.191-3.948-2.82-5.578-5.578-3.698-9.714 6.894-19.679 13.725-29.957 20.869-8.962 6.33-18.237 12.973-27.638 19.679-1.128 0.815-2.382 1.629-3.572 2.57-2.695 2.131-2.507 4.074 1.191 6.079zM589.674 885.424c5.452 0 7.082 1.316 6.518 4.951-0.752 5.139-1.003 10.090-1.441 14.916-1.191 12.66 9.025 20.556 26.886 22.499 13.6 1.567 32.15-5.828 37.665-14.79 6.455-10.341 5.515-21.622 7.834-33.654 2.758-14.477 4.575-30.082 5.515-46.627 1.379-25.131-28.39-35.973-51.39-26.134-11.908 5.076-18.864 13.412-20.681 23.69-0.689 3.635-3.322 3.134-6.267 3.196-46.753 0.313-93.944 0.376-140.822 0.125-45.499-0.251-91.751 1.003-134.68-2.382-1.88-0.125-3.698-0.313-5.515-0.376-5.014-0.188-7.207 1.629-6.58 6.204 2.005 14.038 3.886 27.387 5.703 39.984 0.501 4.011 2.632 5.39 7.709 5.64 23.376 1.191 47.567 1.128 71.758 1.441 65.679 0.689 131.985 1.253 197.79 1.316zM138.673 424.051c-14.352 0.251-23.376 11.97-23.439 29.205 0 22.186 0.125 44.434 0.251 66.557 0.188 16.921 9.275 29.079 23.314 29.894 14.54 0.94 29.769 1.755 45.499 2.444 15.041 0.752 30.521 1.441 46.439 2.068 18.363 0.627 28.703-10.153 28.453-30.772-0.313-23-0.439-46.189-0.501-69.377-0.125-19.804-10.779-31.273-28.327-31.148-32.526 0.313-63.298 0.689-91.688 1.128zM263.527 234.020c0.815-15.041-9.589-24.755-24.191-23.627-16.733 1.253-33.153 2.758-49.134 4.262v-0.063c-14.853 1.441-29.455 3.447-43.306 4.324-14.728 0.94-27.262 13.161-28.578 33.028-1.379 19.929-2.193 40.736-2.068 61.606 0.063 5.139 1.191 10.591 3.071 15.041 3.698 8.711 10.529 12.033 18.801 11.406 14.226-1.003 28.954-2.82 44.246-3.635 16.169-0.815 32.84-0.627 50.012-1.128 16.044-0.501 27.199-11.782 27.889-29.205 1.128-24.567 1.943-48.758 3.259-72.009zM476.207 422.002c-40.36-0.501-80.532-0.752-119.577 0.439-16.483 0.564-26.197 10.529-26.761 27.826-0.877 27.199-0.188 54.461 0.501 81.473 0.376 13.788 13.036 25.57 27.701 25.946 19.177 0.439 38.543 0.564 58.096 0.752 19.303 0.188 38.731 0.501 58.347 0.376 13.161-0.063 23-5.954 28.265-18.112 1.316-3.196 1.692-7.082 1.692-10.591 0.125-26.134-0.313-52.581 0.188-78.966 0.313-15.542-12.409-28.954-28.453-29.142zM363.963 203.449c-16.984 0.439-29.017 11.657-29.831 28.077-1.128 23.564-1.567 47.881-2.758 72.636-0.689 14.602 10.654 27.575 27.074 27.387 19.115-0.125 38.48-0.564 58.034-0.752 19.491-0.251 39.169-0.125 58.848-0.564 11.657-0.188 21.434-4.638 26.761-15.542 1.191-2.444 2.193-5.202 2.256-7.771 0.564-13.6 0-26.51-5.578-39.483-6.33-14.79-8.962-30.27-12.973-45.061-1.441-5.578-1.817-11.406-3.823-16.671-0.752-1.88-4.638-3.635-7.145-3.76-10.654-0.376-21.246 0-31.9 0.125-26.573 0.251-53.020 0.689-78.966 1.379zM630.617 426.802c-20.995-12.973-47.379-0.063-48.069 24.755-0.689 26.134-0.627 52.268-0.251 78.088 0.313 17.987 12.66 28.891 30.458 28.766 19.052-0.188 37.979-0.439 56.655-0.815 17.861-0.251 35.597-1.128 52.518-0.877 17.673 0.251 31.649-13.6 31.148-33.216-0.313-14.477 0.125-29.142 0.439-43.87 0.125-5.39-1.629-7.771-6.706-8.586-26.322-4.262-53.082-12.66-79.53-24.379-12.534-5.515-24.818-12.534-36.663-19.867zM684.094 225.578c-4.324-4.136-7.583-9.401-9.651-15.793-2.068-6.33-3.572-14.289-4.45-23.815 6.142 3.134 13.036 5.64 20.493 7.458 7.395 1.755 14.54 2.883 21.246 3.322 16.671 1.065 29.079-2.946 37.101-11.845 8.085-8.962 11.281-22.060 9.651-38.919-1.943-19.052-8.774-33.592-20.493-44.246s-27.137-17.611-48.319-18.049c-23.94-0.439-40.674 5.39-50.513 17.987-9.777 12.597-14.101 31.837-12.848 59.287 1.817 38.856 11.72 68.688 30.145 86.424 6.706 6.455 14.853 11.343 24.316 14.665 9.401 3.322 20.681 5.202 33.529 5.703 12.221 0.501 25.131-0.188 38.605-1.943-0.376-12.221-1.003-18.112-1.755-29.894-10.278 1.191-20.055 1.567-29.205 1.065-9.401-0.439-17.047-1.567-22.938-3.259-6.016-1.692-10.967-4.387-14.916-8.147zM682.151 166.479c-5.327-0.689-9.965-1.379-13.976-2.131-0.188-3.948-0.313-5.891-0.501-9.714-1.128-16.984 0.188-28.641 3.886-35.535 3.698-6.956 10.779-10.215 21.308-9.965 17.611 0.376 26.573 11.657 28.39 32.401 0.94 10.591-0.501 17.924-4.199 21.496-3.698 3.635-10.466 4.888-20.744 4.575-4.136-0.063-8.837-0.501-14.164-1.128zM805.037 248.572c11.845 16.42 29.142 25.633 51.328 27.387 22.248 1.817 36.913-4.638 44.685-18.739 7.709-14.101 10.215-36.412 7.521-66.369s-9.463-52.268-20.431-67.434c-10.905-15.229-27.387-23.815-49.761-26.197s-38.104 2.695-46.753 15.542c-8.523 12.785-11.343 33.78-8.461 64.426 2.883 30.584 10.153 54.963 21.872 71.382zM875.918 224.255c-0.94 9.15-3.071 15.542-6.518 19.24s-8.398 5.264-14.978 4.638c-6.518-0.627-12.033-3.134-16.357-7.583-4.45-4.512-8.022-11.531-10.779-21.183-2.758-9.589-4.951-22.624-6.643-38.668-1.567-15.856-1.943-27.826-1.003-36.099 0.877-8.273 3.134-13.85 6.643-16.859 3.572-2.946 8.711-4.011 15.417-3.259 6.768 0.752 12.158 3.008 16.357 6.831s7.646 10.027 10.341 18.739c2.758 8.774 4.888 20.807 6.455 36.537 1.629 15.918 2.005 28.515 1.065 37.665z" />
<glyph unicode="&#xe92f;" glyph-name="share-google" data-tags="share-google" d="M97.524 960h828.952c53.861 0 97.524-43.663 97.524-97.524v-828.952c0-53.861-43.663-97.524-97.524-97.524h-828.952c-53.861 0-97.524 43.663-97.524 97.524v828.952c0 53.861 43.663 97.524 97.524 97.524zM405.059 372.94h136.956c-24.039-73.855-89.151-126.809-165.365-126.204-92.483 0.741-168.966 81.146-172.549 181.583-3.846 107.657 75.628 196.584 173.848 196.584 44.916 0 85.902-18.603 116.8-49.076 7.322-7.216 18.455-7.268 25.657 0.101l50.303 51.439c7.869 8.048 7.893 21.642 0.048 29.71-48.999 50.461-114.733 81.906-187.223 83.437-154.606 3.29-284.928-134.473-286.002-302.524-1.092-169.319 124.875-306.942 280.418-306.942 149.593 0 271.792 127.286 279.975 287.621 0.215 2.012 0.362 69.951 0.362 69.951h-253.223c-10.379 0-18.79-9.144-18.79-20.42v-74.84c-0.003-11.276 8.411-20.42 18.787-20.42zM871.422 552.73c0 9.489-6.987 17.175-15.613 17.175h-53.71c-8.626 0-15.619-7.686-15.619-17.175v-70.202h-63.803c-8.626 0-15.63-7.686-15.63-17.181v-59.077c0-9.483 6.998-17.181 15.63-17.181h63.803v-70.192c0-9.489 6.987-17.181 15.619-17.181h53.71c8.626 0 15.613 7.692 15.613 17.181v70.192h63.817c8.621 0 15.619 7.698 15.619 17.181v59.077c0 9.489-6.998 17.181-15.619 17.181h-63.817v70.202z" />
<glyph unicode="&#xe930;" glyph-name="hours" data-tags="hours" horiz-adv-x="1072" d="M628.62 23.613c22.218 5.917 45.072-7.060 51.056-29.066 5.977-21.978-7.18-44.589-29.397-50.5-10.158-2.704-20.52-5.127-30.802-7.209-21.259-4.291-42.040 8.282-48.188 28.434-0.369 1.217-0.69 2.428-0.949 3.701-4.603 22.296 9.942 44.053 32.479 48.595 8.615 1.752 17.295 3.775 25.802 6.045zM332.233 54.479c21.417-8.722 31.028-31.568 21.46-51.069-9.568-19.485-34.69-28.22-56.104-19.519-9.772 3.964-19.513 8.26-28.99 12.752-10.545 5.008-17.814 13.497-21.010 23.113-3.094 9.324-2.342 19.713 3.013 29.024 10.85 18.931 36.498 26.267 57.304 16.396 7.94-3.779 16.124-7.375 24.327-10.697zM475.552 21.6c22.825-1.9 39.822-22.572 37.988-46.181-1.837-23.595-21.818-41.189-44.638-39.277-10.387 0.856-20.897 2.067-31.223 3.575-16.504 2.437-29.356 14.611-33.873 30.095-1.682 5.775-2.218 12.005-1.344 18.378 3.22 23.445 24.19 39.76 46.853 36.419 8.679-1.262 17.521-2.285 26.237-3.010zM754.2 96.353c17.666 11.723 41.862 7.424 54.022-9.622 12.166-17.029 7.689-40.346-9.98-52.071-8.024-5.319-16.348-10.5-24.726-15.372-18.378-10.663-42.257-4.975-53.323 12.739-1.713 2.751-3.027 5.623-3.947 8.554-4.999 15.994 1.63 33.832 17.158 42.85 7.047 4.1 14.048 8.446 20.796 12.922zM909.506 194.893c18.556-14.095 22.745-41.338 9.359-60.868-6.090-8.902-12.548-17.736-19.161-26.218-14.496-18.631-40.598-21.37-58.299-6.114-6.6 5.694-11.099 13.106-13.4 21.106-3.843 13.441-1.483 28.58 7.604 40.258 5.539 7.108 10.95 14.515 16.061 21.982 13.384 19.518 39.278 23.936 57.837 9.854zM975.814 357.271c21.364-6.449 33.632-29.66 27.402-51.801-2.83-10.094-6.005-20.235-9.423-30.14-7.527-21.717-30.593-33.003-51.553-25.211-12.498 4.642-21.423 15.035-24.987 27.294-2.414 8.263-2.368 17.386 0.664 26.135 2.857 8.313 5.525 16.833 7.921 25.317 6.232 22.153 28.612 34.876 49.975 28.406zM1053.367 623.203c15.019 4.673 22.362-3.411 16.347-17.956l-53.805-129.782c-6.021-14.534-21.769-19.439-34.973-10.872l-117.773 76.381c-13.192 8.561-11.713 19.388 3.318 24.064l54.118 16.847c-9.119 27.707-20.843 53.889-34.778 78.355-0.121 0.212-0.258 0.395-0.383 0.602-1.059 1.846-2.113 3.669-3.193 5.494-0.049 0.070-0.077 0.149-0.116 0.219-72.829 122.912-202.561 201.148-343.248 209.96-1.105 0.070-2.208 0.13-3.316 0.188-2.74 0.153-5.485 0.3-8.239 0.384-0.722 0.021-1.43 0.042-2.16 0.074-45.118 1.353-91.185-4.422-136.74-18.172-45.266-13.666-86.627-34.201-123.297-60.097-2.134-1.493-4.245-3.046-6.358-4.585-142.838-104.83-211.668-292.324-157.696-471.503 4.7-15.575 10.182-30.734 16.47-45.461 0.028-0.051 0.049-0.088 0.067-0.151 3.455-8 7.187-15.994 11.113-23.792 0.195-0.391 0.353-0.807 0.532-1.214 16.698-33.052 37.559-63.731 62.487-91.661 15.158-16.973 13.679-43.048-3.276-58.218-16.965-15.166-43-13.701-58.147 3.276-49.934 55.977-86.309 121.047-108.109 193.413-8.301 27.561-14.213 55.463-17.813 83.456-0.039 0.174-0.077 0.349-0.098 0.516-0.021 0.237-0.049 0.46-0.079 0.7-13.243 104.788 6.167 210.871 57.049 305.816 4.983 9.277 10.245 18.372 15.72 27.263 0.327 0.584 0.613 1.172 0.957 1.737 5.489 8.826 11.302 17.575 17.302 26.012 0.207 0.295 0.453 0.551 0.671 0.849 61.391 86.342 147.444 150.963 248.496 186.012 0.701 0.279 1.382 0.588 2.104 0.837 6.098 2.095 12.314 4.108 18.493 5.978 3.764 1.125 7.579 2.244 11.36 3.276 0.878 0.249 1.767 0.416 2.656 0.591 113.203 30.695 231.297 21.832 338.012-24.922 0.492-0.219 1.024-0.419 1.53-0.632 0.081-0.053 0.151-0.088 0.239-0.13 12.098-5.35 24.050-11.172 35.832-17.507 117.049-62.896 203.527-166.457 244.6-292.482l54.12 16.838zM351.683 447.82c23.971 17.859 39.312 31.434 46.011 40.702 6.704 9.277 10.052 18.073 10.052 26.408 0 9.008-3.321 16.707-9.949 23.078-6.628 6.384-14.971 9.581-25.014 9.581-10.465 0-18.992-3.296-25.632-9.881-6.626-6.58-11.085-18.209-13.361-34.859l-81.996 6.649c3.222 23.101 9.11 41.137 17.688 54.118 8.568 12.955 20.669 22.894 36.267 29.812 15.617 6.93 37.216 10.397 64.806 10.397 28.81 0 51.222-3.3 67.227-9.876 16.007-6.585 28.608-16.7 37.792-30.333 9.177-13.646 13.763-28.935 13.763-45.861 0-18.006-5.261-35.206-15.773-51.591-10.52-16.399-29.651-34.405-57.379-54.021-16.485-11.426-27.494-19.409-33.059-23.995-5.562-4.56-12.091-10.53-19.596-17.93h127.819v-66.914h-245.581c2.809 24.324 11.361 47.199 25.618 68.626 14.271 21.429 41.044 46.727 80.297 75.89zM744.709 303.304h-71.154v55.228h-148.717v67.518l148.717 177.776h71.154v-181.592h36.873v-63.701h-36.873v-55.228zM594.982 422.234h78.573v92.97l-78.573-92.97z" />
<glyph unicode="&#xe931;" glyph-name="alert-circular-filling" data-tags="alert-circular-filling" d="M527.714 572.322c-38.335 0-63.029 27.303-63.029 60.961 0 34.366 25.557 60.753 64.583 60.753 39.371 0 63.374-26.387 64.237-60.753 0-33.658-24.866-60.961-65.792-60.961v0zM467.794 132.784v391.564h121.568v-391.564h-121.568zM512 960c-282.852 0-512-229.25-512-512.052 0-282.767 229.148-511.948 512-511.948 282.679 0 512 229.181 512 511.948 0 282.802-229.321 512.052-512 512.052v0z" />
<glyph unicode="&#xe932;" glyph-name="alert-triangular-filling" data-tags="alert-triangular-filling" d="M511.999 878.551c55.656 0 107.602-27.685 138.427-73.495 1.713-2.569 3.282-5.138 4.995-7.421l320.666-510.611c9.704-14.128 34.393-56.084 34.393-102.179 0-92.19-75.065-167.397-167.112-167.397h-662.167c-92.332 0-167.682 75.207-167.682 167.397 0 31.539 8.277 64.076 25.259 88.337l2.426 3.568 4.139 6.565 8.991 13.985 312.104 496.626c2.283 4.139 4.852 8.134 7.706 12.273 31.11 45.239 82.486 72.353 137.856 72.353zM522.026 718.551l-60.508-105.89 24.118-351.634 73.067-0.285 24.403 351.919-61.079 105.89zM493.518 134.769h73.067v71.782h-73.067v-71.782z" />
<glyph unicode="&#xe933;" glyph-name="alert-triangular" data-tags="alert-triangular" d="M512 878.552c-55.371 0-106.746-27.115-137.856-72.353-2.854-4.139-5.423-8.134-7.706-12.273l-327.659-520.744c-16.982-24.26-25.259-56.798-25.259-88.337 0-92.19 75.35-167.397 167.682-167.397h662.167c92.047 0 167.112 75.207 167.112 167.397 0 46.095-24.689 88.051-34.393 102.179l-320.666 510.611c-1.713 2.283-3.282 4.852-4.995 7.421-30.825 45.809-82.771 73.495-138.427 73.495v0zM512 788.788c26.972 0 50.376-13.843 64.362-34.393 1.57-2.426 2.854-4.709 4.139-7.564l-1.284 2.854 321.665-511.61c0 0 19.836-29.113 19.836-53.23 0-42.813-34.535-77.633-77.348-77.633h-662.167c-42.955 0-77.776 34.821-77.776 77.633 0 23.119 9.276 37.39 9.561 37.39l4.139 6.565 4.281 6.707 8.848 14.271 313.245 498.481c1.427 2.141 2.854 4.424 4.281 6.565 13.985 20.55 37.39 33.965 64.219 33.965v0zM516.424 707.302l-60.508-105.89 24.118-351.634 73.067-0.285 24.403 351.919zM484.457 136.040h73.067v71.782h-73.067z" />
<glyph unicode="&#xe934;" glyph-name="arrow-down" data-tags="arrow-down" d="M1024 631.856l-512-480.277-512 480.277 120 112.565 392-367.712 392 367.712z" />
<glyph unicode="&#xe935;" glyph-name="arrow-left" data-tags="arrow-left" d="M695.856-64l-480.277 512 480.277 512 112.565-120-367.712-392 367.712-392z" />
<glyph unicode="&#xe936;" glyph-name="arrow-up" data-tags="arrow-up" d="M0 264.144l512 480.277 512-480.277-120-112.565-392 367.712-392-367.712z" />
<glyph unicode="&#xe937;" glyph-name="bars" data-tags="bars" d="M1008.001 113.148c0-88.877-72.272-161.149-161.149-161.149h-669.703c-88.877 0-161.149 72.272-161.149 161.149v669.703c0 88.877 72.272 161.149 161.149 161.149h669.703c88.877 0 161.149-72.272 161.149-161.149v-669.703zM976.001 113.148v669.703c0 71.203-57.945 129.149-129.149 129.149h-669.703c-71.203 0-129.149-57.945-129.149-129.149v-669.703c0-71.203 57.945-129.149 129.149-129.149h669.703c71.203 0 129.149 57.945 129.149 129.149zM224.001 51.999v24h276v96h-276v84h168v96h-168v84h540v120h-540v84h444v96h-444v108c0 6.636-5.364 12-12 12s-12-5.364-12-12v-792c0-6.636 5.364-12 12-12s12 5.364 12 12z" />
<glyph unicode="&#xe938;" glyph-name="calendar" data-tags="calendar" d="M938.688 864h-138.688v64c0 17.696-14.304 32-32 32s-32-14.304-32-32v-64h-192v64c0 17.696-14.336 32-32 32s-32-14.304-32-32v-64h-192v64c0 17.696-14.336 32-32 32s-32-14.304-32-32v-64h-138.656c-47.136 0-85.344-38.176-85.344-85.312v-757.344c0-47.136 38.208-85.344 85.344-85.344h853.344c47.136 0 85.312 38.208 85.312 85.344v757.344c0 47.136-38.176 85.312-85.312 85.312zM960 21.344c0-11.776-9.568-21.344-21.312-21.344h-853.344c-11.776 0-21.344 9.568-21.344 21.344v757.344c0 11.744 9.568 21.312 21.344 21.312h138.656v-64c0-17.696 14.336-32 32-32s32 14.304 32 32v64h192v-64c0-17.696 14.336-32 32-32s32 14.304 32 32v64h192v-64c0-17.696 14.304-32 32-32s32 14.304 32 32v64h138.688c11.744 0 21.312-9.568 21.312-21.312v-757.344zM224 576h128v-96h-128v96zM224 416h128v-96h-128v96zM224 256h128v-96h-128v96zM448 256h128v-96h-128v96zM448 416h128v-96h-128v96zM448 576h128v-96h-128v96zM672 256h128v-96h-128v96zM672 416h128v-96h-128v96zM672 576h128v-96h-128v96z" />
</font>
</defs>
</svg>
